<svg width="100" height="28" viewBox="0 0 100 28" fill="none" xmlns="http://www.w3.org/2000/svg">
<rect x="0.5" y="0.5" width="99" height="27" rx="13.5" fill="white"/>
<rect x="0.5" y="0.5" width="99" height="27" rx="13.5" stroke="#6D8D55"/>
<rect x="2" y="2" width="24" height="24" rx="12" fill="#6D8D55"/>
<path d="M13.45 7.06011C13.2967 6.96678 13.24 6.84678 13.28 6.70011C13.3165 6.54327 13.4027 6.40349 13.5259 6.30122C13.6492 6.19895 13.8031 6.13957 13.9652 6.13175C14.1272 6.12392 14.2888 6.16808 14.4264 6.25775C14.5641 6.34742 14.6704 6.4779 14.73 6.63011C14.75 6.69011 14.7233 6.77678 14.65 6.89011C14.5404 7.06497 14.3526 7.18104 14.1277 7.2129C13.9028 7.24477 13.6591 7.18983 13.45 7.06011Z" fill="#FEFEFE"/>
<path d="M10.68 8.61988C11.0224 8.61988 11.3 8.3423 11.3 7.99988C11.3 7.65747 11.0224 7.37988 10.68 7.37988C10.3376 7.37988 10.06 7.65747 10.06 7.99988C10.06 8.3423 10.3376 8.61988 10.68 8.61988Z" fill="#FEFEFE"/>
<path d="M17.8767 7.84996C17.7709 7.49536 17.445 7.27952 17.1486 7.36787C16.8522 7.45623 16.6976 7.81533 16.8033 8.16994C16.9091 8.52454 17.235 8.74038 17.5314 8.65203C17.8278 8.56367 17.9824 8.20457 17.8767 7.84996Z" fill="#FEFEFE"/>
<path d="M14.01 13.9699C15.4735 13.9699 16.66 12.7835 16.66 11.3199C16.66 9.85637 15.4735 8.66992 14.01 8.66992C12.5464 8.66992 11.36 9.85637 11.36 11.3199C11.36 12.7835 12.5464 13.9699 14.01 13.9699Z" fill="#FEFEFE"/>
<path d="M8.88001 11.7899C8.70001 11.6699 8.64668 11.4899 8.72001 11.2499C8.79335 10.9899 8.95001 10.8165 9.19001 10.7299C9.53001 10.6099 9.74668 10.7232 9.84001 11.0699C9.91335 11.3299 9.92668 11.5132 9.88001 11.6199C9.84572 11.701 9.79052 11.771 9.71845 11.825C9.64637 11.8789 9.55925 11.9153 9.46342 11.9316C9.3676 11.9479 9.26549 11.9436 9.16456 11.9191C9.06363 11.8946 8.96641 11.8504 8.88001 11.7899Z" fill="#FEFEFE"/>
<path d="M18.42 10.7101C18.64 10.5701 18.8867 10.6667 19.16 11.0001C19.4067 11.3001 19.39 11.5467 19.11 11.7401C18.9033 11.8867 18.71 11.9467 18.53 11.9201C18.4061 11.8987 18.2957 11.838 18.2133 11.7457C18.131 11.6535 18.0805 11.5341 18.0686 11.4032C18.0567 11.2723 18.0839 11.1361 18.1466 11.0124C18.2094 10.8887 18.3046 10.7833 18.42 10.7101Z" fill="#FEFEFE"/>
<path d="M10.55 20.6099C9.89668 20.6899 9.32334 20.6666 8.83001 20.5399C8.66209 20.4963 8.5069 20.4148 8.37673 20.302C8.24656 20.1892 8.14497 20.0481 8.08001 19.8899C7.22668 17.8432 7.11001 15.7866 7.73001 13.7199C7.75065 13.6488 7.7852 13.5824 7.83166 13.5247C7.87812 13.467 7.93556 13.4191 8.00067 13.3838C8.06578 13.3484 8.13725 13.3263 8.21095 13.3188C8.28465 13.3113 8.3591 13.3185 8.43001 13.3399L11.53 14.2399C11.7574 14.3072 11.9491 14.4616 12.0633 14.6694C12.1775 14.8773 12.2051 15.1218 12.14 15.3499L11.86 16.3299C11.8243 16.45 11.7639 16.5612 11.6829 16.6565C11.6018 16.7517 11.5018 16.8287 11.3895 16.8825C11.2772 16.9363 11.155 16.9657 11.031 16.9687C10.9071 16.9717 10.784 16.9482 10.67 16.8999C10.13 16.6732 9.75334 16.7099 9.54001 17.0099C9.34668 17.2699 9.37001 17.5832 9.61001 17.9499C9.87668 18.3432 10.32 18.8699 10.94 19.5299C11.0229 19.616 11.08 19.7236 11.105 19.8404C11.1299 19.9573 11.1216 20.0788 11.081 20.1912C11.0404 20.3036 10.9691 20.4024 10.8753 20.4764C10.7815 20.5504 10.6688 20.5967 10.55 20.6099Z" fill="#FEFEFE"/>
<path d="M18.51 20.7599L17.32 20.4199C17.2568 20.4024 17.1988 20.3696 17.1512 20.3244C17.1036 20.2793 17.0679 20.2231 17.0471 20.1608C17.0264 20.0986 17.0213 20.0322 17.0322 19.9675C17.0432 19.9028 17.0699 19.8418 17.11 19.7899C18.05 18.5432 18.1533 17.7465 17.42 17.3999C17.329 17.3573 17.2289 17.3394 17.1303 17.3482C17.0318 17.357 16.9384 17.3921 16.86 17.4499C16.1333 17.9765 15.6433 18.7332 15.39 19.7199C15.3469 19.8898 15.2703 20.0494 15.1649 20.1893C15.0594 20.3291 14.9273 20.4464 14.7762 20.534C14.6251 20.6217 14.4582 20.678 14.2854 20.6996C14.1126 20.7212 13.9373 20.7077 13.77 20.6599L13.45 20.5599C13.1849 20.4845 12.9543 20.3187 12.7975 20.0907C12.6406 19.8628 12.5673 19.5868 12.59 19.3099C12.83 16.3232 14.9933 14.3799 19.08 13.4799C19.3714 13.4162 19.6761 13.4682 19.9298 13.625C20.1836 13.7817 20.3665 14.0308 20.44 14.3199C20.88 16.0732 20.69 17.9999 19.87 20.0999C19.7667 20.3599 19.5698 20.5718 19.3182 20.6939C19.0665 20.8161 18.7782 20.8396 18.51 20.7599Z" fill="#FEFEFE"/>
<path d="M35.474 16.102H32.044L31.106 19H30.056L33.206 9.802H34.354L37.49 19H36.398L35.474 16.102ZM35.208 15.276L34.732 13.792C34.3587 12.6253 34.0413 11.5847 33.78 10.67H33.724C33.416 11.7993 33.1033 12.84 32.786 13.792L32.31 15.276H35.208ZM40.7549 22.164C39.9055 22.164 39.2242 22.0007 38.7109 21.674C38.2069 21.3473 37.9549 20.8993 37.9549 20.33C37.9549 20.0407 38.0389 19.7607 38.2069 19.49C38.3842 19.2193 38.6315 18.9767 38.9489 18.762V18.706C38.7715 18.594 38.6269 18.4447 38.5149 18.258C38.4029 18.0713 38.3469 17.852 38.3469 17.6C38.3469 17.3387 38.4169 17.1007 38.5569 16.886C38.7062 16.662 38.8835 16.48 39.0889 16.34V16.284C38.8462 16.088 38.6409 15.8313 38.4729 15.514C38.3049 15.1967 38.2209 14.8467 38.2209 14.464C38.2209 13.988 38.3329 13.568 38.5569 13.204C38.7809 12.8307 39.0842 12.546 39.4669 12.35C39.8495 12.1447 40.2695 12.042 40.7269 12.042C41.0349 12.042 41.3475 12.098 41.6649 12.21H44.0169V13.008H42.5749C42.7522 13.176 42.8969 13.3907 43.0089 13.652C43.1209 13.9133 43.1769 14.1887 43.1769 14.478C43.1769 14.9447 43.0695 15.36 42.8549 15.724C42.6402 16.0787 42.3462 16.354 41.9729 16.55C41.5995 16.746 41.1842 16.844 40.7269 16.844C40.3535 16.844 40.0082 16.7647 39.6909 16.606C39.5415 16.7273 39.4249 16.8533 39.3409 16.984C39.2662 17.1053 39.2289 17.2593 39.2289 17.446C39.2289 17.6887 39.3175 17.88 39.4949 18.02C39.6815 18.1507 39.9942 18.216 40.4329 18.216H41.7909C42.5842 18.216 43.1722 18.3467 43.5549 18.608C43.9375 18.8693 44.1289 19.2753 44.1289 19.826C44.1289 20.2367 43.9889 20.6193 43.7089 20.974C43.4289 21.338 43.0322 21.6273 42.5189 21.842C42.0055 22.0567 41.4175 22.164 40.7549 22.164ZM40.7269 16.144C41.1469 16.144 41.5015 15.99 41.7909 15.682C42.0895 15.3647 42.2389 14.9587 42.2389 14.464C42.2389 13.96 42.0942 13.5587 41.8049 13.26C41.5155 12.952 41.1562 12.798 40.7269 12.798C40.2975 12.798 39.9335 12.952 39.6349 13.26C39.3455 13.5587 39.2009 13.96 39.2009 14.464C39.2009 14.9587 39.3455 15.3647 39.6349 15.682C39.9335 15.99 40.2975 16.144 40.7269 16.144ZM40.8949 21.436C41.3242 21.436 41.7069 21.366 42.0429 21.226C42.3882 21.0953 42.6542 20.9133 42.8409 20.68C43.0275 20.456 43.1209 20.218 43.1209 19.966C43.1209 19.6487 43.0042 19.42 42.7709 19.28C42.5375 19.1493 42.1829 19.084 41.7069 19.084H40.4609C40.1715 19.084 39.8822 19.0467 39.5929 18.972C39.0982 19.3173 38.8509 19.7233 38.8509 20.19C38.8509 20.5727 39.0329 20.876 39.3969 21.1C39.7609 21.324 40.2602 21.436 40.8949 21.436ZM45.2369 12.21H46.0769L46.1609 13.456H46.2029C46.4362 13.0173 46.7209 12.672 47.0569 12.42C47.3929 12.168 47.7522 12.042 48.1349 12.042C48.4055 12.042 48.6389 12.0887 48.8349 12.182L48.6389 13.078C48.3962 13.0033 48.1815 12.966 47.9949 12.966C47.6775 12.966 47.3602 13.0967 47.0429 13.358C46.7349 13.6193 46.4689 14.0253 46.2449 14.576V19H45.2369V12.21ZM49.7447 12.21H50.7527V19H49.7447V12.21ZM50.2627 10.754C50.0574 10.754 49.8894 10.6887 49.7587 10.558C49.628 10.4273 49.5627 10.2547 49.5627 10.04C49.5627 9.83467 49.628 9.67133 49.7587 9.55C49.8894 9.41933 50.0574 9.354 50.2627 9.354C50.468 9.354 50.636 9.41933 50.7667 9.55C50.8974 9.67133 50.9627 9.83467 50.9627 10.04C50.9627 10.2547 50.8974 10.4273 50.7667 10.558C50.636 10.6887 50.468 10.754 50.2627 10.754ZM55.5173 19.168C54.92 19.168 54.3786 19.028 53.8933 18.748C53.4173 18.4587 53.0393 18.048 52.7593 17.516C52.4886 16.984 52.3533 16.3493 52.3533 15.612C52.3533 14.884 52.498 14.2493 52.7873 13.708C53.086 13.1667 53.4826 12.756 53.9773 12.476C54.472 12.1867 55.0086 12.042 55.5873 12.042C56.3246 12.042 56.9826 12.3127 57.5613 12.854L57.0293 13.526C56.8053 13.3207 56.5813 13.1667 56.3573 13.064C56.1333 12.952 55.8906 12.896 55.6293 12.896C55.2093 12.896 54.8313 13.0127 54.4953 13.246C54.1593 13.47 53.8933 13.7873 53.6973 14.198C53.5106 14.6087 53.4173 15.08 53.4173 15.612C53.4173 16.424 53.618 17.0773 54.0193 17.572C54.4206 18.0667 54.948 18.314 55.6013 18.314C56.1893 18.314 56.74 18.0807 57.2533 17.614L57.7013 18.3C57.3933 18.5707 57.0526 18.7853 56.6793 18.944C56.306 19.0933 55.9186 19.168 55.5173 19.168ZM60.9527 19.168C60.2527 19.168 59.7347 18.9487 59.3987 18.51C59.0627 18.062 58.8947 17.3993 58.8947 16.522V12.21H59.9027V16.396C59.9027 17.0493 60.0101 17.53 60.2247 17.838C60.4394 18.1367 60.7847 18.286 61.2607 18.286C61.6061 18.286 61.9187 18.1927 62.1987 18.006C62.4881 17.8193 62.8101 17.5113 63.1647 17.082V12.21H64.1867V19H63.3327L63.2487 17.922H63.2067C62.8614 18.3233 62.5067 18.6313 62.1427 18.846C61.7881 19.0607 61.3914 19.168 60.9527 19.168ZM67.4093 19.168C67.0266 19.168 66.7466 19.0513 66.5693 18.818C66.3919 18.5753 66.3033 18.2207 66.3033 17.754V9.004H67.3113V17.838C67.3113 17.9967 67.3393 18.118 67.3953 18.202C67.4606 18.2767 67.5399 18.314 67.6333 18.314C67.7079 18.314 67.7919 18.3047 67.8853 18.286L68.0253 19.07C67.8479 19.1353 67.6426 19.168 67.4093 19.168ZM71.6113 19.168C70.9393 19.168 70.4586 18.9767 70.1693 18.594C69.8799 18.2113 69.7353 17.6653 69.7353 16.956V13.05H68.7133V12.28L69.7773 12.21L69.9033 10.292H70.7573V12.21H72.6193V13.05H70.7573V16.984C70.7573 17.432 70.8366 17.768 70.9953 17.992C71.1633 18.216 71.4433 18.328 71.8353 18.328C72.0313 18.328 72.2926 18.2673 72.6193 18.146L72.8293 18.916C72.3253 19.084 71.9193 19.168 71.6113 19.168ZM75.898 19.168C75.198 19.168 74.68 18.9487 74.344 18.51C74.008 18.062 73.84 17.3993 73.84 16.522V12.21H74.848V16.396C74.848 17.0493 74.9554 17.53 75.17 17.838C75.3847 18.1367 75.73 18.286 76.206 18.286C76.5514 18.286 76.864 18.1927 77.144 18.006C77.4334 17.8193 77.7554 17.5113 78.11 17.082V12.21H79.132V19H78.278L78.194 17.922H78.152C77.8067 18.3233 77.452 18.6313 77.088 18.846C76.7334 19.0607 76.3367 19.168 75.898 19.168ZM81.2486 12.21H82.0886L82.1726 13.456H82.2146C82.4479 13.0173 82.7326 12.672 83.0686 12.42C83.4046 12.168 83.7639 12.042 84.1466 12.042C84.4173 12.042 84.6506 12.0887 84.8466 12.182L84.6506 13.078C84.4079 13.0033 84.1933 12.966 84.0066 12.966C83.6893 12.966 83.3719 13.0967 83.0546 13.358C82.7466 13.6193 82.4806 14.0253 82.2566 14.576V19H81.2486V12.21ZM90.7997 15.22C90.7997 15.4627 90.7857 15.668 90.7577 15.836H86.0677C86.1144 16.6293 86.357 17.2453 86.7957 17.684C87.2437 18.1227 87.7897 18.342 88.4337 18.342C89.031 18.342 89.605 18.16 90.1557 17.796L90.5337 18.468C90.1977 18.6827 89.8524 18.8553 89.4977 18.986C89.143 19.1073 88.7464 19.168 88.3077 19.168C87.7104 19.168 87.1644 19.028 86.6697 18.748C86.1844 18.4587 85.797 18.0433 85.5077 17.502C85.2277 16.9607 85.0877 16.3307 85.0877 15.612C85.0877 14.9027 85.2277 14.2773 85.5077 13.736C85.797 13.1947 86.175 12.7793 86.6417 12.49C87.1084 12.1913 87.603 12.042 88.1257 12.042C88.9657 12.042 89.619 12.3267 90.0857 12.896C90.5617 13.456 90.7997 14.2307 90.7997 15.22ZM89.8897 15.094C89.8897 14.3753 89.7357 13.8247 89.4277 13.442C89.1197 13.0593 88.6904 12.868 88.1397 12.868C87.6357 12.868 87.1877 13.0593 86.7957 13.442C86.4037 13.8247 86.1704 14.3753 86.0957 15.094H89.8897Z" fill="black"/>
</svg>
