<svg width="61" height="28" viewBox="0 0 61 28" fill="none" xmlns="http://www.w3.org/2000/svg">
<rect x="0.5" y="0.5" width="60" height="27" rx="13.5" fill="white"/>
<rect x="0.5" y="0.5" width="60" height="27" rx="13.5" stroke="#396B8A"/>
<rect x="2" y="2" width="24" height="24" rx="12" fill="#396B8A"/>
<path d="M22 13.75V14.91C20.6733 17.25 18.64 18.4833 15.9 18.61C15.7158 18.6165 15.5378 18.6644 15.38 18.75L13.12 19.95C12.9955 20.0143 12.8556 20.0429 12.7158 20.0327C12.576 20.0224 12.4418 19.9738 12.328 19.892C12.2141 19.8103 12.1251 19.6986 12.0708 19.5694C12.0164 19.4402 11.9988 19.2985 12.02 19.16C12.26 17.66 11.5533 16.6133 9.9 16.02C9.75775 15.9661 9.60245 15.9554 9.45322 15.9892C9.30398 16.0229 9.16731 16.0997 9.06 16.21C8.23333 17.0433 7.21333 17.3967 6 17.27V16.24C6.74 14.7667 6.74 13.35 6 11.99V10.81C7.14667 10.57 8.20333 10.9167 9.17 11.85C9.28651 11.9647 9.44435 12.028 9.60916 12.0262C9.77397 12.0243 9.93242 11.9574 10.05 11.84L11.82 10.07C11.902 9.99092 11.9673 9.89618 12.0119 9.79139C12.0566 9.6866 12.0797 9.5739 12.08 9.45999V7.98999C12.08 7.92433 12.0927 7.85931 12.1173 7.79865C12.1419 7.73799 12.178 7.68287 12.2235 7.63644C12.269 7.59001 12.323 7.55318 12.3825 7.52805C12.4419 7.50292 12.5057 7.48999 12.57 7.48999H14.86C15.0805 7.49022 15.2985 7.53661 15.5 7.62617C15.7015 7.71572 15.8821 7.84647 16.03 8.00999C16.7833 8.84332 17.7667 9.53332 18.98 10.08C20.47 10.76 21.38 12.27 22 13.75ZM17.28 13.18C17.2067 13.3 17.2333 13.43 17.36 13.57C17.456 13.6761 17.5806 13.7567 17.7182 13.8018C17.8559 13.8469 18.0004 13.8545 18.1338 13.8235C18.2671 13.7926 18.3835 13.7245 18.4682 13.6278C18.5529 13.5312 18.6022 13.4102 18.61 13.28C18.6167 13.0733 18.43 12.9267 18.05 12.84C17.7167 12.7667 17.46 12.88 17.28 13.18Z" fill="white"/>
<path d="M31.288 9.802H36.51V10.684H32.324V13.932H35.866V14.8H32.324V19H31.288V9.802ZM37.8033 12.21H38.8113V19H37.8033V12.21ZM38.3213 10.754C38.1159 10.754 37.9479 10.6887 37.8173 10.558C37.6866 10.4273 37.6213 10.2547 37.6213 10.04C37.6213 9.83467 37.6866 9.67133 37.8173 9.55C37.9479 9.41933 38.1159 9.354 38.3213 9.354C38.5266 9.354 38.6946 9.41933 38.8253 9.55C38.9559 9.67133 39.0213 9.83467 39.0213 10.04C39.0213 10.2547 38.9559 10.4273 38.8253 10.558C38.6946 10.6887 38.5266 10.754 38.3213 10.754ZM42.6799 19.168C42.2132 19.168 41.7606 19.084 41.3219 18.916C40.8832 18.7387 40.4959 18.51 40.1599 18.23L40.6779 17.544C41.0139 17.8147 41.3406 18.02 41.6579 18.16C41.9752 18.3 42.3299 18.37 42.7219 18.37C43.1699 18.37 43.5152 18.2627 43.7579 18.048C44.0006 17.8333 44.1219 17.5627 44.1219 17.236C44.1219 16.9093 43.9819 16.648 43.7019 16.452C43.4312 16.256 43.0439 16.0693 42.5399 15.892C41.8959 15.6587 41.3919 15.4067 41.0279 15.136C40.6639 14.856 40.4819 14.4593 40.4819 13.946C40.4819 13.3953 40.6872 12.9427 41.0979 12.588C41.5179 12.224 42.0826 12.042 42.7919 12.042C43.1746 12.042 43.5432 12.112 43.8979 12.252C44.2526 12.392 44.5699 12.574 44.8499 12.798L44.3599 13.456C44.0892 13.26 43.8326 13.1107 43.5899 13.008C43.3472 12.9053 43.0812 12.854 42.7919 12.854C42.3626 12.854 42.0359 12.9567 41.8119 13.162C41.5879 13.358 41.4759 13.6007 41.4759 13.89C41.4759 14.0953 41.5412 14.2727 41.6719 14.422C41.8119 14.5713 41.9799 14.6927 42.1759 14.786C42.3719 14.87 42.6472 14.982 43.0019 15.122C43.4779 15.2993 43.8512 15.458 44.1219 15.598C44.3926 15.738 44.6259 15.9387 44.8219 16.2C45.0179 16.452 45.1159 16.7787 45.1159 17.18C45.1159 17.544 45.0179 17.88 44.8219 18.188C44.6352 18.4867 44.3552 18.7247 43.9819 18.902C43.6179 19.0793 43.1839 19.168 42.6799 19.168ZM46.5181 9.004H47.5261V11.776L47.4981 13.204C47.8715 12.8307 48.2355 12.546 48.5901 12.35C48.9448 12.1447 49.3368 12.042 49.7661 12.042C50.4755 12.042 50.9981 12.266 51.3341 12.714C51.6701 13.1527 51.8381 13.8107 51.8381 14.688V19H50.8161V14.814C50.8161 14.1607 50.7088 13.6847 50.4941 13.386C50.2888 13.0873 49.9481 12.938 49.4721 12.938C49.1361 12.938 48.8235 13.0267 48.5341 13.204C48.2448 13.372 47.9088 13.6473 47.5261 14.03V19H46.5181V9.004Z" fill="black"/>
</svg>
