<svg width="375" height="428" viewBox="0 0 375 428" fill="none" xmlns="http://www.w3.org/2000/svg">
<g clip-path="url(#clip0_2755_18983)">
<g clip-path="url(#clip1_2755_18983)">
<path d="M227 355L152 355L152 428L227 355Z" fill="#B56046"/>
</g>
<rect width="71" height="72" transform="matrix(1 -8.74228e-08 -8.74228e-08 -1 227 136)" fill="#8D4B37"/>
<rect width="73" height="73" transform="matrix(1 -8.74228e-08 -8.74228e-08 -1 9 64)" fill="#542D20"/>
<rect width="70" height="78" transform="matrix(1 -8.74228e-08 -8.74228e-08 -1 374 355)" fill="#B56046"/>
<path d="M9 181.417C9 197.755 22.2449 211 38.5833 211L82 211L82 136L8.99999 136L9 181.417Z" fill="#D99B88"/>
<path d="M374 181.417C374 197.755 387.245 211 403.583 211L414.417 211C430.755 211 444 197.755 444 181.417L444 136L374 136L374 181.417Z" fill="#8D4B37"/>
<rect width="70" height="66" transform="matrix(1 -8.74228e-08 -8.74228e-08 -1 374 277)" fill="#B56046"/>
<rect width="76" height="78" transform="matrix(1 -8.74228e-08 -8.74228e-08 -1 298 355)" fill="#8D4B37"/>
<rect width="76" height="75" transform="matrix(1 -8.74228e-08 -8.74228e-08 -1 298 211)" fill="#D28871"/>
<g clip-path="url(#clip2_2755_18983)">
<path d="M152 211L82 211L82 277L152 211Z" fill="#8D4B37"/>
</g>
<rect width="71" height="66" transform="matrix(1 -8.74228e-08 -8.74228e-08 -1 227 277)" fill="#D28871"/>
<g clip-path="url(#clip3_2755_18983)">
<path d="M298 64L298 -9L227 -8.99999L298 64Z" fill="#EED1C8"/>
</g>
<g clip-path="url(#clip4_2755_18983)">
<path d="M82 211L9 211L9.00001 277L82 211Z" fill="#C76A4D"/>
</g>
<g clip-path="url(#clip5_2755_18983)">
<path d="M9.00001 211L82 211L82 136L9.00001 211Z" fill="#B56046"/>
</g>
<g clip-path="url(#clip6_2755_18983)">
<path d="M82 211L82 277L152 277L82 211Z" fill="#D99B88"/>
</g>
<path d="M227 181.417C227 197.755 240.245 211 256.583 211L298 211L298 136L227 136L227 181.417Z" fill="#542D20"/>
<g clip-path="url(#clip7_2755_18983)">
<path d="M82 211L152 211L152 136L82 211Z" fill="#542D20"/>
</g>
<path d="M152 325.417C152 341.755 165.245 355 181.583 355L197.417 355C213.755 355 227 341.755 227 325.417L227 277L152 277L152 325.417Z" fill="#EED1C8"/>
<path d="M298 34.4167C298 50.7551 311.245 64 327.583 64L344.417 64C360.755 64 374 50.7551 374 34.4167L374 -9L298 -8.99999L298 34.4167Z" fill="#8D4B37"/>
<g clip-path="url(#clip8_2755_18983)">
<path d="M227 277L227 355L298 355L227 277Z" fill="#8D4B37"/>
</g>
<g clip-path="url(#clip9_2755_18983)">
<path d="M374 355L298 355L298 428L374 355Z" fill="#D28871"/>
</g>
<g clip-path="url(#clip10_2755_18983)">
<path d="M152 211L152 136L82 136L152 211Z" fill="#C76A4D"/>
</g>
<g clip-path="url(#clip11_2755_18983)">
<path d="M298 355L227 355L227 428L298 355Z" fill="#EED1C8"/>
</g>
<rect width="75" height="72" transform="matrix(1 -8.74228e-08 -8.74228e-08 -1 152 136)" fill="#C76A4D"/>
<path d="M9 277L52.4167 277C68.7551 277 82 263.755 82 247.417L82 211L8.99999 211L9 277Z" fill="#D99B88"/>
<path d="M82 355L122.417 355C138.755 355 152 341.755 152 325.417L152 277L82 277L82 355Z" fill="#542D20"/>
<g clip-path="url(#clip12_2755_18983)">
<path d="M227 428L298 428L298 355L227 428Z" fill="#8D4B37"/>
</g>
</g>
<defs>
<clipPath id="clip0_2755_18983">
<rect width="375" height="428" fill="white" transform="matrix(1 -8.74228e-08 -8.74228e-08 -1 0 428)"/>
</clipPath>
<clipPath id="clip1_2755_18983">
<rect width="73" height="75" fill="white" transform="matrix(-8.74228e-08 -1 -1 8.74228e-08 227 428)"/>
</clipPath>
<clipPath id="clip2_2755_18983">
<rect width="66" height="70" fill="white" transform="matrix(-8.74228e-08 -1 -1 8.74228e-08 152 277)"/>
</clipPath>
<clipPath id="clip3_2755_18983">
<rect width="71" height="73" fill="white" transform="matrix(1 -8.74228e-08 -8.74228e-08 -1 227 64)"/>
</clipPath>
<clipPath id="clip4_2755_18983">
<rect width="66" height="73" fill="white" transform="matrix(-8.74228e-08 -1 -1 8.74228e-08 82 277)"/>
</clipPath>
<clipPath id="clip5_2755_18983">
<rect width="75" height="73" fill="white" transform="matrix(8.74228e-08 1 1 -8.74228e-08 9 136)"/>
</clipPath>
<clipPath id="clip6_2755_18983">
<rect width="70" height="66" fill="white" transform="matrix(-1 8.74228e-08 8.74228e-08 1 152 211)"/>
</clipPath>
<clipPath id="clip7_2755_18983">
<rect width="75" height="70" fill="white" transform="matrix(8.74228e-08 1 1 -8.74228e-08 82 136)"/>
</clipPath>
<clipPath id="clip8_2755_18983">
<rect width="71" height="78" fill="white" transform="matrix(-1 8.74228e-08 8.74228e-08 1 298 277)"/>
</clipPath>
<clipPath id="clip9_2755_18983">
<rect width="73" height="76" fill="white" transform="matrix(-8.74228e-08 -1 -1 8.74228e-08 374 428)"/>
</clipPath>
<clipPath id="clip10_2755_18983">
<rect width="70" height="75" fill="white" transform="matrix(1 -8.74228e-08 -8.74228e-08 -1 82 211)"/>
</clipPath>
<clipPath id="clip11_2755_18983">
<rect width="73" height="71" fill="white" transform="matrix(-8.74228e-08 -1 -1 8.74228e-08 298 428)"/>
</clipPath>
<clipPath id="clip12_2755_18983">
<rect width="73" height="71" fill="white" transform="matrix(8.74228e-08 1 1 -8.74228e-08 227 355)"/>
</clipPath>
</defs>
</svg>
