<svg width="91" height="28" viewBox="0 0 91 28" fill="none" xmlns="http://www.w3.org/2000/svg">
<rect x="0.5" y="0.5" width="90" height="27" rx="13.5" fill="white"/>
<rect x="0.5" y="0.5" width="90" height="27" rx="13.5" stroke="#DB668B"/>
<rect x="2" y="2" width="24" height="24" rx="12" fill="#DB668B"/>
<g clip-path="url(#clip0_3274_18288)">
<path d="M6 10.07V9.52995C6.51333 8.96995 7.34333 8.74995 8.49 8.86995C8.57196 8.87795 8.65472 8.86673 8.73147 8.83721C8.80822 8.8077 8.87676 8.76073 8.93145 8.70018C8.98614 8.63964 9.0254 8.56724 9.04602 8.48897C9.06663 8.41069 9.06799 8.32877 9.05 8.24995C8.97667 7.92329 8.78667 7.57995 8.48 7.21995C8.44527 7.17951 8.41898 7.13253 8.40267 7.08178C8.38636 7.03103 8.38036 6.97753 8.38501 6.92443C8.38967 6.87132 8.4049 6.81969 8.4298 6.77255C8.45469 6.72542 8.48876 6.68373 8.53 6.64995C8.68333 6.51662 8.87667 6.50329 9.11 6.60995C9.31 6.68995 9.43667 6.76329 9.49 6.82995C9.76333 7.19662 10 7.43995 10.2 7.55995C10.4733 7.72662 10.7633 7.68662 11.07 7.43995C11.37 7.19329 11.7167 6.99662 12.11 6.84995C12.3833 6.74995 12.7267 6.84329 13.14 7.12995C14.1133 7.80329 14.89 7.67329 15.47 6.73995C15.5327 6.64588 15.6271 6.57755 15.7361 6.54747C15.845 6.51739 15.9612 6.52758 16.0632 6.57617C16.1653 6.62477 16.2464 6.70851 16.2917 6.81206C16.337 6.9156 16.3435 7.03201 16.31 7.13995C16.2167 7.42662 16.0633 7.74995 15.85 8.10995C15.8004 8.19172 15.7734 8.28519 15.7718 8.3808C15.7702 8.47642 15.794 8.57075 15.8408 8.65415C15.8876 8.73755 15.9557 8.80703 16.0381 8.85549C16.1205 8.90395 16.2144 8.92965 16.31 8.92995H17.79C17.9958 8.92927 18.196 8.99687 18.3592 9.12214C18.5225 9.24742 18.6396 9.4233 18.6922 9.62225C18.7448 9.8212 18.7299 10.032 18.6499 10.2216C18.5699 10.4111 18.4292 10.5688 18.25 10.67C17.27 11.2233 16.48 11.3566 15.88 11.07C15.8279 11.0457 15.7708 11.0343 15.7135 11.0367C15.6561 11.039 15.6001 11.055 15.5502 11.0834C15.5003 11.1118 15.4579 11.1517 15.4265 11.1998C15.3952 11.2479 15.3758 11.3028 15.37 11.36C15.3233 11.8266 14.92 11.9966 14.16 11.87C13.9988 11.8423 13.8335 11.8574 13.6808 11.9136C13.528 11.9698 13.3932 12.0651 13.29 12.19C12.21 13.45 12.21 14.52 13.18 16.13C13.6067 16.8433 13.5633 17.45 13.05 17.95C12.7926 18.2041 12.468 18.3761 12.114 18.446C11.76 18.5158 11.3911 18.4805 11.0505 18.3442C10.7099 18.208 10.4114 17.9764 10.19 17.6764C9.96864 17.3764 9.83337 17.0204 9.8 16.65C9.78667 16.5233 9.81333 16.26 9.88 15.86C9.9118 15.6609 9.9034 15.4574 9.85531 15.2616C9.80722 15.0658 9.72041 14.8817 9.6 14.72C9.01333 13.9333 8.69333 13.0533 8.64 12.08C8.62875 11.9115 8.56758 11.7502 8.46428 11.6166C8.36098 11.483 8.22024 11.3832 8.06 11.33C7.23333 11.05 6.54667 10.63 6 10.07ZM15.63 10.41C15.64 10.3992 15.6479 10.3868 15.6533 10.3734C15.6587 10.36 15.6615 10.3459 15.6615 10.3319C15.6615 10.318 15.6587 10.3044 15.6533 10.292C15.6479 10.2797 15.64 10.2688 15.63 10.26L12.64 7.65995C12.5372 7.57639 12.409 7.53365 12.28 7.53995C11.9133 7.55995 11.6467 7.80995 11.48 8.28995C11.4292 8.42896 11.3516 8.55568 11.2518 8.6623C11.1521 8.76893 11.0324 8.85321 10.9 8.90995C10.0267 9.26995 9.39333 10.05 9 11.25C8.93566 11.4436 8.94275 11.6561 9.02 11.85L10.07 14.55C10.1033 14.6374 10.1604 14.7137 10.2348 14.7703C10.3093 14.8269 10.3984 14.8618 10.4923 14.8711C10.5862 14.8804 10.6813 14.8637 10.7673 14.823C10.8534 14.7822 10.9269 14.7189 10.98 14.64C11.3667 14.0666 10.9833 13.2166 9.83 12.09C9.68012 11.9468 9.58748 11.7537 9.5691 11.5461C9.55073 11.3385 9.60787 11.1303 9.73 10.96C11.08 9.09995 13.44 9.08995 14.98 10.65C15.0368 10.7031 15.1113 10.7328 15.1878 10.7328C15.2643 10.7328 15.3368 10.7031 15.39 10.65L15.63 10.41Z" fill="#FDFEFE"/>
<path d="M22 13.9999V14.9099L20.92 16.2799C20.8194 16.4079 20.7647 16.5655 20.7647 16.7271C20.7647 16.8887 20.8194 17.0448 20.92 17.1699C21.8067 18.3033 21.8967 19.4399 21.19 20.5799C20.8567 21.1199 20.4233 21.3666 19.89 21.3199C19.8282 21.3153 19.7687 21.2949 19.717 21.2605C19.6654 21.2261 19.6232 21.1789 19.5943 21.1232C19.5654 21.0674 19.5508 21.005 19.5518 20.9415C19.5528 20.8781 19.5694 20.8156 19.6 20.7599C19.7133 20.5466 19.7733 20.3933 19.78 20.2999C19.7935 19.9799 19.7422 19.6605 19.6293 19.3608C19.5163 19.061 19.344 18.7872 19.1228 18.5556C18.9015 18.324 18.6357 18.1395 18.3414 18.0131C18.0471 17.8867 17.7303 17.821 17.41 17.8199C16.67 17.8199 16.09 18.1933 15.67 18.9399C15.2433 19.7066 15.1867 20.2599 15.5 20.5999C15.5771 20.6838 15.6232 20.7915 15.6307 20.9051C15.6382 21.0188 15.6067 21.1316 15.5414 21.2249C15.4761 21.3182 15.3809 21.3864 15.2715 21.4183C15.1621 21.4501 15.0452 21.4436 14.94 21.3999C12.56 20.3899 13.47 18.6599 14.18 16.9699C14.2479 16.8133 14.267 16.6399 14.2349 16.4722C14.2028 16.3045 14.1209 16.1504 14 16.0299C13.4 15.4233 13.1133 14.6766 13.14 13.7899C13.1447 13.5939 13.2069 13.4035 13.319 13.2425C13.431 13.0816 13.588 12.9571 13.7702 12.8846C13.9525 12.8122 14.152 12.7949 14.344 12.8349C14.536 12.875 14.712 12.9706 14.85 13.1099C15.3167 13.5766 15.71 13.8099 16.03 13.8099C17.1367 13.8099 18.1567 13.7899 19.09 13.7499C19.41 13.7366 19.9367 13.3966 20.67 12.7299C20.7206 12.684 20.7799 12.6487 20.8442 12.6263C20.9085 12.6038 20.9765 12.5947 21.044 12.5993C21.1114 12.604 21.177 12.6225 21.2365 12.6535C21.296 12.6846 21.3482 12.7276 21.39 12.7799C21.6567 13.0999 21.86 13.5066 22 13.9999Z" fill="#FDFEFE"/>
<path d="M18.9567 19.9821C18.8955 19.084 18.2026 18.3997 17.4091 18.4538C16.6157 18.5079 16.0221 19.2798 16.0833 20.178C16.1446 21.0761 16.8374 21.7603 17.6309 21.7063C18.4243 21.6522 19.0179 20.8802 18.9567 19.9821Z" fill="#FDFEFE"/>
</g>
<path d="M31.288 9.802H32.324V18.118H36.384V19H31.288V9.802ZM37.6802 12.21H38.6882V19H37.6802V12.21ZM38.1982 10.754C37.9929 10.754 37.8249 10.6887 37.6942 10.558C37.5636 10.4273 37.4982 10.2547 37.4982 10.04C37.4982 9.83467 37.5636 9.67133 37.6942 9.55C37.8249 9.41933 37.9929 9.354 38.1982 9.354C38.4036 9.354 38.5716 9.41933 38.7022 9.55C38.8329 9.67133 38.8982 9.83467 38.8982 10.04C38.8982 10.2547 38.8329 10.4273 38.7022 10.558C38.5716 10.6887 38.4036 10.754 38.1982 10.754ZM39.7989 12.21H40.8489L42.1929 16.172L42.8369 18.16H42.8929L43.5369 16.172L44.8809 12.21H45.8889L43.4529 19H42.2769L39.7989 12.21ZM52.1356 15.22C52.1356 15.4627 52.1216 15.668 52.0936 15.836H47.4036C47.4503 16.6293 47.693 17.2453 48.1316 17.684C48.5796 18.1227 49.1256 18.342 49.7696 18.342C50.367 18.342 50.941 18.16 51.4916 17.796L51.8696 18.468C51.5336 18.6827 51.1883 18.8553 50.8336 18.986C50.479 19.1073 50.0823 19.168 49.6436 19.168C49.0463 19.168 48.5003 19.028 48.0056 18.748C47.5203 18.4587 47.133 18.0433 46.8436 17.502C46.5636 16.9607 46.4236 16.3307 46.4236 15.612C46.4236 14.9027 46.5636 14.2773 46.8436 13.736C47.133 13.1947 47.511 12.7793 47.9776 12.49C48.4443 12.1913 48.939 12.042 49.4616 12.042C50.3016 12.042 50.955 12.3267 51.4216 12.896C51.8976 13.456 52.1356 14.2307 52.1356 15.22ZM51.2256 15.094C51.2256 14.3753 51.0716 13.8247 50.7636 13.442C50.4556 13.0593 50.0263 12.868 49.4756 12.868C48.9716 12.868 48.5236 13.0593 48.1316 13.442C47.7396 13.8247 47.5063 14.3753 47.4316 15.094H51.2256ZM55.3323 19.168C54.8656 19.168 54.4129 19.084 53.9743 18.916C53.5356 18.7387 53.1483 18.51 52.8123 18.23L53.3302 17.544C53.6663 17.8147 53.9929 18.02 54.3103 18.16C54.6276 18.3 54.9823 18.37 55.3743 18.37C55.8223 18.37 56.1676 18.2627 56.4103 18.048C56.6529 17.8333 56.7743 17.5627 56.7743 17.236C56.7743 16.9093 56.6343 16.648 56.3543 16.452C56.0836 16.256 55.6963 16.0693 55.1923 15.892C54.5483 15.6587 54.0443 15.4067 53.6803 15.136C53.3163 14.856 53.1343 14.4593 53.1343 13.946C53.1343 13.3953 53.3396 12.9427 53.7503 12.588C54.1703 12.224 54.7349 12.042 55.4443 12.042C55.8269 12.042 56.1956 12.112 56.5503 12.252C56.9049 12.392 57.2223 12.574 57.5023 12.798L57.0123 13.456C56.7416 13.26 56.4849 13.1107 56.2423 13.008C55.9996 12.9053 55.7336 12.854 55.4443 12.854C55.0149 12.854 54.6883 12.9567 54.4642 13.162C54.2403 13.358 54.1283 13.6007 54.1283 13.89C54.1283 14.0953 54.1936 14.2727 54.3243 14.422C54.4643 14.5713 54.6323 14.6927 54.8283 14.786C55.0243 14.87 55.2996 14.982 55.6543 15.122C56.1303 15.2993 56.5036 15.458 56.7743 15.598C57.0449 15.738 57.2783 15.9387 57.4743 16.2C57.6703 16.452 57.7683 16.7787 57.7683 17.18C57.7683 17.544 57.6703 17.88 57.4743 18.188C57.2876 18.4867 57.0076 18.7247 56.6343 18.902C56.2703 19.0793 55.8363 19.168 55.3323 19.168ZM61.0918 19.168C60.4198 19.168 59.9391 18.9767 59.6498 18.594C59.3604 18.2113 59.2158 17.6653 59.2158 16.956V13.05H58.1938V12.28L59.2578 12.21L59.3838 10.292H60.2378V12.21H62.0998V13.05H60.2378V16.984C60.2378 17.432 60.3171 17.768 60.4758 17.992C60.6438 18.216 60.9238 18.328 61.3158 18.328C61.5118 18.328 61.7731 18.2673 62.0998 18.146L62.3098 18.916C61.8058 19.084 61.3998 19.168 61.0918 19.168ZM65.8308 19.168C65.2708 19.168 64.7528 19.028 64.2768 18.748C63.8008 18.4587 63.4181 18.048 63.1288 17.516C62.8488 16.9747 62.7088 16.34 62.7088 15.612C62.7088 14.884 62.8488 14.2493 63.1288 13.708C63.4181 13.1667 63.8008 12.756 64.2768 12.476C64.7528 12.1867 65.2708 12.042 65.8308 12.042C66.3908 12.042 66.9088 12.1867 67.3848 12.476C67.8608 12.756 68.2388 13.1667 68.5188 13.708C68.8081 14.2493 68.9528 14.884 68.9528 15.612C68.9528 16.34 68.8081 16.9747 68.5188 17.516C68.2388 18.048 67.8608 18.4587 67.3848 18.748C66.9088 19.028 66.3908 19.168 65.8308 19.168ZM65.8308 18.314C66.2321 18.314 66.5868 18.202 66.8948 17.978C67.2121 17.754 67.4594 17.4367 67.6368 17.026C67.8141 16.6153 67.9028 16.144 67.9028 15.612C67.9028 15.08 67.8141 14.6087 67.6368 14.198C67.4594 13.7873 67.2121 13.47 66.8948 13.246C66.5868 13.0127 66.2321 12.896 65.8308 12.896C65.4294 12.896 65.0701 13.0127 64.7528 13.246C64.4448 13.47 64.2021 13.7873 64.0248 14.198C63.8568 14.6087 63.7728 15.08 63.7728 15.612C63.7728 16.424 63.9641 17.0773 64.3468 17.572C64.7294 18.0667 65.2241 18.314 65.8308 18.314ZM73.1833 19.168C72.586 19.168 72.0447 19.028 71.5593 18.748C71.0833 18.4587 70.7053 18.048 70.4253 17.516C70.1547 16.984 70.0193 16.3493 70.0193 15.612C70.0193 14.884 70.164 14.2493 70.4533 13.708C70.752 13.1667 71.1487 12.756 71.6433 12.476C72.138 12.1867 72.6747 12.042 73.2533 12.042C73.9907 12.042 74.6487 12.3127 75.2273 12.854L74.6953 13.526C74.4713 13.3207 74.2473 13.1667 74.0233 13.064C73.7993 12.952 73.5567 12.896 73.2953 12.896C72.8753 12.896 72.4973 13.0127 72.1613 13.246C71.8253 13.47 71.5593 13.7873 71.3633 14.198C71.1767 14.6087 71.0833 15.08 71.0833 15.612C71.0833 16.424 71.284 17.0773 71.6853 17.572C72.0867 18.0667 72.614 18.314 73.2673 18.314C73.8553 18.314 74.406 18.0807 74.9193 17.614L75.3673 18.3C75.0593 18.5707 74.7187 18.7853 74.3453 18.944C73.972 19.0933 73.5847 19.168 73.1833 19.168ZM76.6588 9.004H77.6528V15.92H77.6948L80.7048 12.21H81.8388L79.5708 14.926L82.1468 19H81.0408L78.9828 15.64L77.6528 17.208V19H76.6588V9.004Z" fill="black"/>
<defs>
<clipPath id="clip0_3274_18288">
<rect width="16" height="16" fill="white" transform="translate(6 6)"/>
</clipPath>
</defs>
</svg>
