<svg width="311" height="55" viewBox="0 0 311 55" fill="none" xmlns="http://www.w3.org/2000/svg">
<path d="M304.139 54.9519C303.12 54.9519 302.252 54.7551 301.535 54.3614C300.818 53.9576 300.217 53.3771 299.733 52.62L299.415 54.6339H295.599V34.1311L293.252 33.6768V31.0117H300.005V39.9912C300.48 39.335 301.06 38.8303 301.747 38.4769C302.443 38.1236 303.251 37.947 304.17 37.947C305.492 37.947 306.613 38.3053 307.531 39.0221C308.46 39.7287 309.167 40.7281 309.651 42.0203C310.136 43.3124 310.378 44.8317 310.378 46.5781V46.8961C310.378 48.5214 310.136 49.9398 309.651 51.1512C309.167 52.3525 308.46 53.2862 307.531 53.9525C306.603 54.6188 305.472 54.9519 304.139 54.9519ZM302.792 51.5146C303.922 51.5146 304.735 51.1158 305.23 50.3183C305.724 49.5107 305.972 48.37 305.972 46.8961V46.5781C305.972 45.5081 305.861 44.5894 305.638 43.8222C305.426 43.0449 305.088 42.4443 304.624 42.0203C304.17 41.5963 303.574 41.3843 302.837 41.3843C302.171 41.3843 301.6 41.5408 301.126 41.8537C300.652 42.1666 300.278 42.5906 300.005 43.1257V49.9701C300.308 50.4748 300.692 50.8584 301.156 51.1209C301.631 51.3833 302.176 51.5146 302.792 51.5146Z" fill="#C76A4D"/>
<path d="M282.168 54.9519C280.442 54.9519 279.084 54.4067 278.095 53.3165C277.116 52.2161 276.626 50.5101 276.626 48.1983V41.3691L274.824 40.9148V38.2498H276.626H281.048V48.2286C281.048 49.3996 281.25 50.2426 281.653 50.7574C282.067 51.2622 282.688 51.5145 283.516 51.5145C284.172 51.5145 284.753 51.3883 285.257 51.136C285.762 50.8735 286.176 50.505 286.499 50.0306V41.3691L284.546 40.9148V38.2498H286.499H290.921V51.5297L292.889 51.9839V54.6339H287.044L286.741 52.5594C286.226 53.3266 285.58 53.9171 284.803 54.331C284.026 54.7449 283.148 54.9519 282.168 54.9519Z" fill="#C76A4D"/>
<path d="M250.883 54.6339V51.984L253.23 51.5297V35.7059L250.883 35.2516V32.5865H260.014V35.2516L257.651 35.7059V42.0657H266.646V35.7059L264.284 35.2516V32.5865H266.646H271.053H273.415V35.2516L271.053 35.7059V51.5297L273.415 51.984V54.6339H264.284V51.984L266.646 51.5297V45.4728H257.651V51.5297L260.014 51.984V54.6339H250.883Z" fill="#C76A4D"/>
<path d="M235.57 54.9519C234.045 54.9519 232.869 54.533 232.041 53.6951C231.224 52.8572 230.815 51.5297 230.815 49.7126V41.354H228.559V38.2498H230.815V34.2371H235.221V38.2498H238.235V41.354H235.221V49.6975C235.221 50.3335 235.353 50.7877 235.615 51.0603C235.888 51.3329 236.256 51.4692 236.72 51.4692C236.973 51.4692 237.235 51.454 237.508 51.4237C237.79 51.3834 238.033 51.343 238.235 51.3026L238.613 54.4976C238.159 54.6289 237.664 54.7349 237.129 54.8156C236.604 54.9065 236.084 54.9519 235.57 54.9519Z" fill="#C76A4D"/>
<path d="M209.707 54.6339V51.9839L211.827 51.5297V41.3691L209.479 40.9148V38.2497H215.945L216.142 40.5968C216.687 39.7589 217.359 39.1078 218.156 38.6435C218.964 38.1791 219.882 37.9469 220.912 37.9469C222.537 37.9469 223.809 38.4668 224.728 39.5066C225.647 40.5464 226.106 42.1767 226.106 44.3976V51.5297L228.226 51.9839V54.6339H219.776V51.9839L221.669 51.5297V44.4127C221.669 43.3124 221.452 42.5351 221.018 42.0808C220.584 41.6164 219.938 41.3842 219.08 41.3842C218.444 41.3842 217.889 41.5205 217.414 41.7931C216.95 42.0555 216.561 42.4341 216.248 42.9288V51.5297L218.035 51.9839V54.6339H209.707Z" fill="#C76A4D"/>
<path d="M201.394 54.9519C199.829 54.9519 198.461 54.6086 197.29 53.9222C196.119 53.2256 195.21 52.2716 194.564 51.0603C193.928 49.8489 193.61 48.4658 193.61 46.9112V46.3055C193.61 44.6802 193.913 43.2417 194.519 41.9899C195.125 40.7281 195.978 39.7388 197.078 39.022C198.188 38.3053 199.496 37.9469 201 37.9469C202.484 37.9469 203.731 38.2397 204.74 38.8252C205.75 39.4107 206.517 40.2536 207.042 41.3539C207.567 42.4543 207.829 43.7868 207.829 45.3516V47.7592H198.199L198.168 47.8501C198.229 48.5668 198.405 49.2078 198.698 49.7731C199.001 50.3284 199.425 50.7675 199.97 51.0905C200.515 51.4035 201.177 51.56 201.954 51.56C202.761 51.56 203.514 51.459 204.21 51.2571C204.917 51.0451 205.603 50.7372 206.269 50.3334L207.466 53.0591C206.789 53.6042 205.936 54.0585 204.907 54.4219C203.887 54.7752 202.716 54.9519 201.394 54.9519ZM198.229 44.8367H203.695V44.443C203.695 43.7767 203.604 43.2064 203.423 42.7319C203.251 42.2474 202.968 41.8738 202.575 41.6114C202.191 41.3489 201.691 41.2177 201.076 41.2177C200.49 41.2177 199.995 41.3741 199.592 41.6871C199.188 41.9899 198.87 42.4089 198.638 42.9439C198.416 43.4789 198.264 44.0846 198.183 44.761L198.229 44.8367Z" fill="#C76A4D"/>
<path d="M164.521 54.6339V51.9839L166.656 51.5297V41.3691L164.294 40.9148V38.2497H170.76L170.941 40.4151C171.466 39.6277 172.123 39.022 172.91 38.598C173.707 38.1639 174.626 37.9469 175.666 37.9469C176.716 37.9469 177.614 38.1791 178.361 38.6435C179.118 39.1078 179.684 39.8094 180.057 40.7483C180.562 39.87 181.218 39.1835 182.026 38.6889C182.833 38.1942 183.782 37.9469 184.873 37.9469C186.488 37.9469 187.76 38.4971 188.688 39.5974C189.627 40.6978 190.097 42.3735 190.097 44.6247V51.5297L192.232 51.9839V54.6339H183.767V51.9839L185.675 51.5297V44.6096C185.675 43.3982 185.473 42.5603 185.069 42.0959C184.676 41.6215 184.1 41.3842 183.343 41.3842C182.657 41.3842 182.076 41.5811 181.602 41.9748C181.127 42.3584 180.784 42.8682 180.572 43.5042V51.5297L182.359 51.9839V54.6339H174.379V51.9839L176.166 51.5297V44.6096C176.166 43.4285 175.964 42.5956 175.56 42.1111C175.166 41.6265 174.581 41.3842 173.803 41.3842C173.178 41.3842 172.637 41.5104 172.183 41.7628C171.729 42.0152 171.355 42.3786 171.063 42.853V51.5297L172.971 51.9839V54.6339H164.521Z" fill="#C76A4D"/>
<path d="M159.614 54.9519C158.09 54.9519 156.914 54.533 156.086 53.6951C155.269 52.8572 154.86 51.5297 154.86 49.7126V41.354H152.604V38.2498H154.86V34.2371H159.266V38.2498H162.28V41.354H159.266V49.6975C159.266 50.3335 159.397 50.7877 159.66 51.0603C159.932 51.3329 160.301 51.4692 160.765 51.4692C161.018 51.4692 161.28 51.454 161.553 51.4237C161.835 51.3834 162.078 51.343 162.28 51.3026L162.658 54.4976C162.204 54.6289 161.709 54.7349 161.174 54.8156C160.649 54.9065 160.129 54.9519 159.614 54.9519Z" fill="#C76A4D"/>
<path d="M144.549 54.9518C143.327 54.9518 142.187 54.8358 141.127 54.6036C140.077 54.3714 139.067 54.0383 138.098 53.6042L138.053 48.9706H141.127L141.717 51.3328C142.06 51.5044 142.434 51.6407 142.838 51.7417C143.252 51.8426 143.721 51.8931 144.246 51.8931C145.235 51.8931 145.932 51.7316 146.336 51.4085C146.739 51.0855 146.941 50.6817 146.941 50.1971C146.941 49.7428 146.724 49.3441 146.29 49.0009C145.866 48.6475 145.013 48.3396 143.731 48.0772C141.793 47.6734 140.364 47.0475 139.446 46.1995C138.527 45.3515 138.068 44.2663 138.068 42.9439C138.068 42.0353 138.295 41.2076 138.749 40.4605C139.214 39.7135 139.915 39.1129 140.854 38.6586C141.803 38.2043 143.014 37.9772 144.488 37.9772C145.72 37.9772 146.845 38.0983 147.865 38.3406C148.895 38.5728 149.758 38.8807 150.454 39.2643L150.5 43.7464H147.441L146.972 41.5962C146.699 41.3943 146.376 41.2429 146.003 41.1419C145.639 41.041 145.225 40.9905 144.761 40.9905C143.984 40.9905 143.388 41.147 142.974 41.4599C142.56 41.7729 142.353 42.1767 142.353 42.6713C142.353 42.954 142.424 43.2165 142.565 43.4587C142.717 43.701 143.009 43.9282 143.443 44.1401C143.878 44.3521 144.508 44.554 145.336 44.7458C147.365 45.2102 148.844 45.8311 149.773 46.6084C150.702 47.3756 151.166 48.4557 151.166 49.8488C151.166 51.3732 150.611 52.6048 149.5 53.5436C148.4 54.4824 146.75 54.9518 144.549 54.9518Z" fill="#C76A4D"/>
<path d="M129.013 54.9519C127.448 54.9519 126.08 54.6086 124.909 53.9222C123.738 53.2256 122.83 52.2716 122.183 51.0603C121.547 49.8489 121.229 48.4658 121.229 46.9112V46.3055C121.229 44.6802 121.532 43.2417 122.138 41.9899C122.744 40.7281 123.597 39.7388 124.697 39.022C125.808 38.3053 127.115 37.9469 128.619 37.9469C130.103 37.9469 131.35 38.2397 132.359 38.8252C133.369 39.4107 134.136 40.2536 134.661 41.3539C135.186 42.4543 135.448 43.7868 135.448 45.3516V47.7592H125.818L125.787 47.8501C125.848 48.5668 126.025 49.2078 126.317 49.7731C126.62 50.3284 127.044 50.7675 127.589 51.0905C128.134 51.4035 128.796 51.56 129.573 51.56C130.381 51.56 131.133 51.459 131.829 51.2571C132.536 51.0451 133.222 50.7372 133.889 50.3334L135.085 53.0591C134.408 53.6042 133.555 54.0585 132.526 54.4219C131.506 54.7752 130.335 54.9519 129.013 54.9519ZM125.848 44.8367H131.314V44.443C131.314 43.7767 131.224 43.2064 131.042 42.7319C130.87 42.2474 130.588 41.8738 130.194 41.6114C129.81 41.3489 129.311 41.2177 128.695 41.2177C128.109 41.2177 127.615 41.3741 127.211 41.6871C126.807 41.9899 126.489 42.4089 126.257 42.9439C126.035 43.4789 125.883 44.0846 125.803 44.761L125.848 44.8367Z" fill="#C76A4D"/>
<path d="M108.706 54.6339L103.754 41.1874L101.982 40.9148V38.2498H109.932V40.8997L108.206 41.2025L110.674 48.6375L111.053 49.9094H111.144L111.568 48.6375L114.278 41.2177L112.264 40.8997V38.2498H120.199V40.9148L118.382 41.2177L113.203 54.6339H108.706Z" fill="#C76A4D"/>
<path d="M83.8424 54.6339V51.9839L85.9623 51.5297V41.3691L83.6152 40.9148V38.2497H90.0811L90.2779 40.5968C90.823 39.7589 91.4943 39.1078 92.2919 38.6435C93.0994 38.1791 94.0181 37.9469 95.0478 37.9469C96.6731 37.9469 97.945 38.4668 98.8637 39.5066C99.7823 40.5464 100.242 42.1767 100.242 44.3976V51.5297L102.362 51.9839V54.6339H93.9121V51.9839L95.8049 51.5297V44.4127C95.8049 43.3124 95.5879 42.5351 95.1538 42.0808C94.7197 41.6164 94.0736 41.3842 93.2155 41.3842C92.5796 41.3842 92.0243 41.5205 91.5499 41.7931C91.0855 42.0555 90.6968 42.4341 90.3839 42.9288V51.5297L92.1707 51.9839V54.6339H83.8424Z" fill="#C76A4D"/>
<path d="M73.0908 54.6338V51.9839L75.4379 51.5296V35.7058L73.0908 35.2515V32.5864H82.2066V35.2515L79.8595 35.7058V51.5296L82.2066 51.9839V54.6338H73.0908Z" fill="#C76A4D"/>
<path d="M303.827 23.94C302.606 23.94 301.465 23.8239 300.405 23.5917C299.355 23.3595 298.346 23.0264 297.376 22.5923L297.331 17.9587H300.405L300.996 20.321C301.339 20.4926 301.712 20.6289 302.116 20.7298C302.53 20.8308 302.999 20.8812 303.524 20.8812C304.514 20.8812 305.21 20.7197 305.614 20.3967C306.018 20.0736 306.22 19.6698 306.22 19.1853C306.22 18.731 306.003 18.3323 305.569 17.989C305.145 17.6357 304.292 17.3278 303.009 17.0653C301.071 16.6615 299.643 16.0357 298.724 15.1877C297.806 14.3397 297.346 13.2545 297.346 11.9321C297.346 11.0235 297.573 10.1957 298.028 9.44869C298.492 8.70167 299.194 8.10102 300.132 7.64674C301.081 7.19247 302.293 6.96533 303.767 6.96533C304.998 6.96533 306.124 7.08647 307.143 7.32875C308.173 7.56093 309.036 7.86883 309.733 8.25244L309.778 12.7346H306.719L306.25 10.5844C305.977 10.3825 305.654 10.2311 305.281 10.1301C304.917 10.0292 304.504 9.97868 304.039 9.97868C303.262 9.97868 302.666 10.1351 302.252 10.4481C301.838 10.761 301.632 11.1648 301.632 11.6595C301.632 11.9421 301.702 12.2046 301.844 12.4469C301.995 12.6892 302.288 12.9163 302.722 13.1283C303.156 13.3403 303.787 13.5422 304.615 13.734C306.644 14.1984 308.123 14.8192 309.051 15.5965C309.98 16.3637 310.444 17.4439 310.444 18.837C310.444 20.3613 309.889 21.5929 308.779 22.5318C307.678 23.4706 306.028 23.94 303.827 23.94Z" fill="#C76A4D"/>
<path d="M284.747 23.94C283.445 23.94 282.325 23.6068 281.386 22.9406C280.457 22.2642 279.745 21.3254 279.251 20.1241C278.756 18.9127 278.509 17.4994 278.509 15.8842V15.5662C278.509 13.8399 278.756 12.3307 279.251 11.0386C279.756 9.74644 280.472 8.74199 281.401 8.02525C282.33 7.29841 283.44 6.93499 284.732 6.93499C285.631 6.93499 286.418 7.1167 287.095 7.48012C287.771 7.83345 288.356 8.33819 288.851 8.99437V3.1191L286.489 2.66483V-0.000244141H288.851H293.273V20.5178L295.393 20.972V23.622H289.442L289.108 21.6232C288.594 22.3803 287.978 22.9557 287.261 23.3494C286.554 23.7431 285.717 23.94 284.747 23.94ZM286.065 20.5026C286.681 20.5026 287.221 20.3714 287.685 20.1089C288.149 19.8464 288.538 19.4679 288.851 18.9732V12.0229C288.548 11.4979 288.165 11.0941 287.7 10.8115C287.236 10.5187 286.701 10.3723 286.095 10.3723C285.358 10.3723 284.753 10.5944 284.278 11.0386C283.814 11.4727 283.47 12.0784 283.248 12.8557C283.036 13.633 282.93 14.5365 282.93 15.5662V15.8842C282.93 17.3177 283.173 18.4483 283.657 19.2761C284.142 20.0938 284.944 20.5026 286.065 20.5026Z" fill="#C76A4D"/>
<path d="M258.657 23.622V20.9721L260.777 20.5178V10.3572L258.43 9.90298V7.23791H264.896L265.092 9.58499C265.637 8.7471 266.309 8.09598 267.106 7.63161C267.914 7.16724 268.833 6.93506 269.862 6.93506C271.488 6.93506 272.759 7.45495 273.678 8.49473C274.597 9.53451 275.056 11.1648 275.056 13.3857V20.5178L277.176 20.9721V23.622H268.727V20.9721L270.619 20.5178V13.4009C270.619 12.3005 270.402 11.5232 269.968 11.0689C269.534 10.6046 268.888 10.3724 268.03 10.3724C267.394 10.3724 266.839 10.5087 266.364 10.7812C265.9 11.0437 265.511 11.4223 265.198 11.9169V20.5178L266.985 20.9721V23.622H258.657Z" fill="#C76A4D"/>
<path d="M246.831 23.94C245.205 23.94 243.913 23.5059 242.954 22.6378C241.995 21.7595 241.516 20.5683 241.516 19.0642C241.516 17.5196 242.142 16.2678 243.393 15.3088C244.645 14.3397 246.477 13.8552 248.89 13.8552H251.055V12.6438C251.055 11.8564 250.823 11.2204 250.359 10.7358C249.905 10.2412 249.218 9.99383 248.299 9.99383C247.825 9.99383 247.401 10.0544 247.027 10.1755C246.654 10.2866 246.311 10.4481 245.998 10.6601L245.65 12.8255H242.47L242.409 8.57044C243.267 8.08588 244.196 7.69218 245.195 7.38933C246.195 7.08648 247.31 6.93506 248.542 6.93506C250.682 6.93506 252.373 7.43476 253.614 8.43416C254.856 9.42347 255.477 10.8418 255.477 12.6892V19.4427C255.477 19.6648 255.477 19.8869 255.477 20.109C255.487 20.321 255.507 20.5279 255.538 20.7298L257.249 20.9721V23.622H251.767C251.656 23.3394 251.545 23.0365 251.434 22.7135C251.323 22.3904 251.242 22.0674 251.192 21.7444C250.667 22.4106 250.046 22.9457 249.329 23.3495C248.622 23.7432 247.79 23.94 246.831 23.94ZM248.012 20.6693C248.628 20.6693 249.213 20.533 249.768 20.2604C250.323 19.9777 250.753 19.6093 251.055 19.155V16.5656H248.875C247.906 16.5656 247.169 16.7877 246.664 17.2319C246.169 17.6761 245.922 18.2111 245.922 18.837C245.922 19.4225 246.104 19.8768 246.467 20.1998C246.841 20.5128 247.356 20.6693 248.012 20.6693Z" fill="#C76A4D"/>
<path d="M231.204 23.622V20.972L233.339 20.5178V3.1191L230.977 2.66483V-0.000244141H237.76V20.5178L239.895 20.972V23.622H231.204Z" fill="#C76A4D"/>
<path d="M216.515 30.2393C216.132 30.2393 215.723 30.2039 215.289 30.1333C214.865 30.0727 214.461 29.9869 214.077 29.8759L214.577 26.6354C214.769 26.6758 214.981 26.706 215.213 26.7262C215.445 26.7464 215.647 26.7565 215.819 26.7565C216.455 26.7565 217.005 26.59 217.469 26.2568C217.933 25.9237 218.272 25.4442 218.484 24.8183L218.847 23.8037L213.366 10.1907L211.352 9.90298V7.23792H220.043V9.90298L218.045 10.2058L220.619 17.4288L220.937 18.3222H221.028L224.071 10.1755L222.118 9.90298V7.23792H230.219V9.90298L228.372 10.1604L222.118 26.06C221.815 26.8171 221.426 27.5086 220.952 28.1345C220.488 28.7705 219.892 29.2803 219.165 29.6639C218.448 30.0475 217.565 30.2393 216.515 30.2393Z" fill="#C76A4D"/>
<path d="M198.618 23.622V20.9721L200.738 20.5178V10.3572L198.391 9.90298V7.23791H204.856L205.023 9.26699L205.053 9.63041C205.457 8.74206 205.957 8.07074 206.552 7.61647C207.148 7.1622 207.86 6.93506 208.687 6.93506C208.95 6.93506 209.238 6.9603 209.551 7.01077C209.864 7.05115 210.141 7.10667 210.383 7.17734L209.914 11.2507L207.718 11.1295C207.092 11.0992 206.583 11.2052 206.189 11.4475C205.805 11.6898 205.462 12.0381 205.159 12.4923V20.5178L207.279 20.9721V23.622H198.618Z" fill="#C76A4D"/>
<path d="M176.585 23.622V20.9721L178.962 20.4724V4.7545L176.585 4.23965V1.57458H178.962H186.261C188.229 1.57458 189.966 2.03895 191.47 2.96769C192.974 3.88633 194.145 5.16334 194.983 6.79873C195.831 8.42402 196.255 10.2916 196.255 12.4014V12.8103C196.255 14.8999 195.836 16.7625 194.998 18.3978C194.17 20.0231 193.009 21.3001 191.515 22.2289C190.021 23.1576 188.29 23.622 186.322 23.622H176.585ZM183.384 20.2452H186.094C187.316 20.2452 188.351 19.9272 189.199 19.2912C190.047 18.6452 190.693 17.7619 191.137 16.6413C191.591 15.5208 191.818 14.2438 191.818 12.8103V12.3863C191.818 10.9326 191.591 9.65055 191.137 8.54011C190.693 7.41957 190.047 6.54635 189.199 5.92047C188.351 5.28448 187.316 4.96649 186.094 4.96649H183.384V20.2452Z" fill="#C76A4D"/>
<path d="M155.512 23.9401C153.887 23.9401 152.595 23.5061 151.636 22.6379C150.677 21.7596 150.197 20.5684 150.197 19.0643C150.197 17.5197 150.823 16.268 152.075 15.3089C153.327 14.3398 155.159 13.8553 157.572 13.8553H159.737V12.6439C159.737 11.8565 159.505 11.2205 159.04 10.7359C158.586 10.2413 157.9 9.99395 156.981 9.99395C156.507 9.99395 156.083 10.0545 155.709 10.1757C155.336 10.2867 154.992 10.4482 154.679 10.6602L154.331 12.8256H151.151L151.091 8.57056C151.949 8.08601 152.877 7.6923 153.877 7.38945C154.876 7.08661 155.992 6.93518 157.223 6.93518C159.363 6.93518 161.054 7.43488 162.296 8.43428C163.538 9.42359 164.159 10.8419 164.159 12.6893V19.4428C164.159 19.6649 164.159 19.887 164.159 20.1091C164.169 20.3211 164.189 20.528 164.219 20.7299L165.93 20.9722V23.6221H160.449C160.338 23.3395 160.227 23.0366 160.116 22.7136C160.005 22.3906 159.924 22.0675 159.873 21.7445C159.348 22.4108 158.728 22.9458 158.011 23.3496C157.304 23.7433 156.471 23.9401 155.512 23.9401ZM156.693 20.6694C157.309 20.6694 157.895 20.5331 158.45 20.2605C159.005 19.9779 159.434 19.6094 159.737 19.1551V16.5658H157.556C156.587 16.5658 155.85 16.7879 155.346 17.232C154.851 17.6762 154.604 18.2113 154.604 18.8371C154.604 19.4226 154.785 19.8769 155.149 20.2C155.522 20.5129 156.037 20.6694 156.693 20.6694Z" fill="#C76A4D"/>
<path d="M135.342 30.2394C134.959 30.2394 134.55 30.2041 134.116 30.1334C133.692 30.0728 133.288 29.987 132.904 29.876L133.404 26.6355C133.596 26.6759 133.808 26.7062 134.04 26.7264C134.272 26.7465 134.474 26.7566 134.646 26.7566C135.282 26.7566 135.832 26.5901 136.296 26.2569C136.761 25.9238 137.099 25.4443 137.311 24.8184L137.674 23.8039L132.193 10.1908L130.179 9.90311V7.23804H138.87V9.90311L136.872 10.206L139.446 17.4289L139.764 18.3223H139.855L142.898 10.1757L140.945 9.90311V7.23804H149.046V9.90311L147.199 10.1605L140.945 26.0601C140.642 26.8172 140.253 27.5087 139.779 28.1346C139.315 28.7706 138.719 29.2804 137.992 29.664C137.275 30.0476 136.392 30.2394 135.342 30.2394Z" fill="#C76A4D"/>
<path d="M112.037 23.6221V20.9722L114.157 20.5179V10.3574L111.81 9.9031V7.23803H118.275L118.472 9.58511C119.017 8.74723 119.689 8.0961 120.486 7.63173C121.294 7.16736 122.212 6.93518 123.242 6.93518C124.867 6.93518 126.139 7.45507 127.058 8.49485C127.977 9.53463 128.436 11.165 128.436 13.3859V20.5179L130.556 20.9722V23.6221H122.106V20.9722L123.999 20.5179V13.401C123.999 12.3007 123.782 11.5233 123.348 11.0691C122.914 10.6047 122.268 10.3725 121.41 10.3725C120.774 10.3725 120.219 10.5088 119.744 10.7814C119.28 11.0438 118.891 11.4224 118.578 11.917V20.5179L120.365 20.9722V23.6221H112.037Z" fill="#C76A4D"/>
<path d="M103.725 23.9401C102.16 23.9401 100.792 23.5969 99.621 22.9105C98.45 22.2139 97.5415 21.2599 96.8954 20.0485C96.2594 18.8371 95.9414 17.4541 95.9414 15.8995V15.2938C95.9414 13.6685 96.2443 12.23 96.85 10.9782C97.4557 9.71634 98.3087 8.72704 99.409 8.01029C100.519 7.29355 101.827 6.93518 103.331 6.93518C104.815 6.93518 106.062 7.22793 107.071 7.81344C108.081 8.39895 108.848 9.24188 109.373 10.3422C109.898 11.4426 110.16 12.7751 110.16 14.3398V16.7475H100.53L100.499 16.8383C100.56 17.5551 100.737 18.1961 101.029 18.7614C101.332 19.3166 101.756 19.7558 102.301 20.0788C102.846 20.3918 103.508 20.5482 104.285 20.5482C105.092 20.5482 105.845 20.4473 106.541 20.2454C107.248 20.0334 107.934 19.7255 108.6 19.3217L109.797 22.0473C109.12 22.5925 108.267 23.0467 107.238 23.4102C106.218 23.7635 105.047 23.9401 103.725 23.9401ZM100.56 13.825H106.026V13.4313C106.026 12.765 105.935 12.1947 105.754 11.7202C105.582 11.2356 105.299 10.8621 104.906 10.5997C104.522 10.3372 104.022 10.2059 103.407 10.2059C102.821 10.2059 102.326 10.3624 101.923 10.6754C101.519 10.9782 101.201 11.3972 100.969 11.9322C100.747 12.4672 100.595 13.0729 100.514 13.7493L100.56 13.825Z" fill="#C76A4D"/>
<path d="M78.9358 18.2163L76.6493 15.5966L87.4459 4.46691L87.4761 4.42149L85.2956 4.23978V1.57471H94.3659V4.23978L92.2914 4.64862L78.9358 18.2163ZM73.0908 23.6221V20.9722L75.4379 20.5179V4.69405L73.0908 4.23978V1.57471H82.1006V4.23978L79.8595 4.69405V20.5179L82.1006 20.9722V23.6221H73.0908ZM85.7802 23.6221V20.9722L87.8396 20.7905H87.8547L82.252 13.0678L85.1745 10.1453L92.988 20.5936L95.1534 20.9722V23.6221H85.7802Z" fill="#C76A4D"/>
<circle cx="27.476" cy="27.476" r="27.476" fill="#C76A4D"/>
<path d="M41.9777 25.695C42.2587 25.695 42.4874 25.467 42.478 25.1861C42.3493 21.3225 40.7581 17.6439 38.0156 14.9014C35.153 12.0388 31.2704 10.4305 27.2221 10.4305C23.1737 10.4305 19.2911 12.0388 16.4285 14.9014C13.686 17.6439 12.0948 21.3225 11.9661 25.1861C11.9567 25.467 12.1854 25.695 12.4664 25.695H17.5185C17.7995 25.695 18.0259 25.4669 18.0414 25.1864C18.1661 22.9331 19.1163 20.7974 20.7204 19.1933C22.4447 17.469 24.7835 16.5002 27.2221 16.5002C29.6606 16.5002 31.9994 17.469 33.7237 19.1933C35.3278 20.7974 36.278 22.9331 36.4027 25.1864C36.4182 25.4669 36.6446 25.695 36.9256 25.695H41.9777Z" fill="white"/>
<path d="M29.7657 25.695C30.0467 25.695 30.2789 25.4656 30.2322 25.1885C30.1941 24.962 30.1305 24.7399 30.0421 24.5267C29.8887 24.1563 29.6639 23.8197 29.3804 23.5363C29.0969 23.2528 28.7603 23.0279 28.3899 22.8745C28.0195 22.7211 27.6226 22.6421 27.2216 22.6421C26.8207 22.6421 26.4238 22.7211 26.0534 22.8745C25.683 23.0279 25.3464 23.2528 25.0629 23.5363C24.7794 23.8197 24.5546 24.1563 24.4012 24.5267C24.3128 24.7399 24.2492 24.962 24.2111 25.1885C24.1644 25.4656 24.3966 25.695 24.6776 25.695L27.2216 25.695H29.7657Z" fill="white"/>
<path d="M29.7655 47.0653C30.0465 47.0653 30.2751 46.8375 30.2673 46.5566C30.2053 44.3245 29.7356 42.1211 28.88 40.0556C27.9595 37.8332 26.6102 35.8139 24.9093 34.113C23.2084 32.4121 21.1891 31.0629 18.9668 30.1423C16.9012 29.2868 14.6978 28.8171 12.4658 28.7551C12.1849 28.7473 11.957 28.9758 11.957 29.2568V34.3465C11.957 34.6275 12.1849 34.8542 12.4657 34.8659C13.8955 34.9255 15.3051 35.2361 16.6296 35.7847C18.111 36.3983 19.457 37.2977 20.5908 38.4315C21.7246 39.5653 22.624 40.9114 23.2376 42.3927C23.7863 43.7173 24.0969 45.1269 24.1565 46.5566C24.1682 46.8374 24.3949 47.0653 24.6759 47.0653H29.7655Z" fill="white"/>
<path d="M42.4854 32.8548C42.4854 33.9593 41.5841 34.8381 40.4943 35.0183C39.5762 35.1701 38.6762 35.4267 37.8125 35.7844C36.3313 36.398 34.9852 37.2973 33.8516 38.4309C32.9898 39.2927 31.3174 39.1219 30.7555 38.0404C30.3521 37.2639 29.9055 36.5133 29.4188 35.7922C29.0645 35.2673 29.0854 34.5603 29.5332 34.1125C31.2341 32.4117 33.2533 31.0624 35.4756 30.1418C37.0806 29.477 38.769 29.0456 40.4893 28.8572C41.5873 28.737 42.4854 29.6437 42.4854 30.7483V32.8548Z" fill="white"/>
</svg>
