<svg width="299" height="40" viewBox="0 0 299 40" fill="none" xmlns="http://www.w3.org/2000/svg">
<g clip-path="url(#clip0_3515_11733)">
<path d="M87.4023 23.9736V17.9966H97.2159V6.79788L93.0804 6.0097V1.31348H109.13V6.0097L104.994 6.79788V34.614L109.13 35.4021V40.0655H93.0804V35.4021L97.2159 34.614V23.9736H87.4023Z" fill="#C76A4D"/>
<path d="M81.3965 9.26093H73.6179V6.79788L69.4824 6.0097V1.31348H85.4991V6.0097L81.3636 6.79788V9.26093H81.3965Z" fill="#C76A4D"/>
<path d="M85.5313 40.0653H69.5146V35.4019L73.6501 34.6137V15.2705H81.4287V34.6137L85.5642 35.4019V40.0653H85.5313Z" fill="#C76A4D"/>
<path d="M47.1966 34.1214H50.3146C52.448 34.1214 54.2531 33.5631 55.7301 32.4465C57.207 31.2971 58.3558 29.7535 59.1106 27.7831C59.8984 25.8127 60.2922 23.5795 60.2922 21.0508V20.2954C60.2922 17.7338 59.8984 15.5007 59.1106 13.5302C58.3229 11.5598 57.207 10.0163 55.7301 8.93252C54.2531 7.81594 52.448 7.25765 50.3146 7.25765H47.1966L43.0283 5.97686V1.31348H50.5772C54.0234 1.31348 57.0429 2.13449 59.7014 3.77653C62.3271 5.38573 64.3948 7.65174 65.839 10.5089C67.3159 13.366 68.0708 16.6501 68.0708 20.3611V21.0836C68.0708 24.7618 67.3487 28.0458 65.8718 30.903C64.4277 33.7601 62.3928 35.9933 59.7671 37.6353C57.1414 39.2774 54.1218 40.0984 50.6756 40.0984H43.0283V35.435L47.1966 34.1542V34.1214Z" fill="#C76A4D"/>
<path d="M0 40.0655V35.4021L4.13546 34.614V6.79788L0 6.0097V1.31348H15.8198V6.0097L11.8812 6.79788V34.614L15.8198 35.4021V40.0655H0Z" fill="#C76A4D"/>
<path d="M294.371 40.2954C293.617 40.2954 292.993 40.164 292.468 39.8684C291.943 39.5729 291.516 39.1459 291.155 38.5877L290.925 40.0655H288.135V25.0244L286.429 24.696V22.7256H291.385V29.3266C291.746 28.834 292.172 28.4727 292.665 28.21C293.19 27.9473 293.781 27.8159 294.437 27.8159C295.422 27.8159 296.242 28.0786 296.899 28.6041C297.588 29.1295 298.113 29.852 298.441 30.8044C298.802 31.7568 298.966 32.8734 298.966 34.1542V34.384C298.966 35.5663 298.802 36.6172 298.441 37.5039C298.08 38.3906 297.555 39.0803 296.899 39.5729C296.209 40.0655 295.389 40.2954 294.404 40.2954H294.371ZM293.387 37.7666C294.207 37.7666 294.798 37.4711 295.159 36.8799C295.52 36.2888 295.717 35.4349 295.717 34.384V34.1542C295.717 33.366 295.651 32.7092 295.487 32.118C295.323 31.5597 295.093 31.1 294.732 30.8044C294.404 30.5088 293.978 30.3446 293.42 30.3446C292.862 30.3446 292.501 30.4432 292.172 30.673C291.811 30.9029 291.549 31.1985 291.352 31.5926V36.6172C291.582 36.9785 291.844 37.274 292.205 37.4711C292.566 37.6681 292.96 37.7666 293.42 37.7666H293.387Z" fill="#C76A4D"/>
<path d="M278.29 40.2955C277.01 40.2955 276.025 39.9014 275.303 39.0804C274.581 38.2594 274.22 37.0114 274.22 35.3365V30.3447L272.907 30.0163V28.0459H277.469V35.3694C277.469 36.2232 277.633 36.8472 277.929 37.2085C278.224 37.5697 278.684 37.7668 279.307 37.7668C279.931 37.7668 280.226 37.6682 280.587 37.504C280.948 37.307 281.277 37.0443 281.506 36.683V30.3447L280.062 30.0163V28.0459H284.723V37.7996L286.167 38.128V40.0656H281.867L281.638 38.5549C281.277 39.1132 280.784 39.5402 280.226 39.8686C279.668 40.1641 279.012 40.3283 278.29 40.3283V40.2955Z" fill="#C76A4D"/>
<path d="M255.348 40.0658V38.1282L257.054 37.7998V26.2071L255.348 25.8786V23.9082H262.043V25.8786L260.304 26.2071V30.8704H266.901V26.2071L265.161 25.8786V23.9082H271.857V25.8786L270.117 26.2071V37.7998L271.857 38.1282V40.0658H265.161V38.1282L266.901 37.7998V33.3663H260.304V37.7998L262.043 38.1282V40.0658H255.348Z" fill="#C76A4D"/>
<path d="M244.123 40.2951C243.007 40.2951 242.154 39.9995 241.53 39.3756C240.939 38.7516 240.644 37.7992 240.644 36.4527V30.3115H239.003V28.0455H240.644V25.0898H243.86V28.0455H246.059V30.3115H243.86V36.4199C243.86 36.8797 243.959 37.2081 244.156 37.4051C244.353 37.6022 244.615 37.7007 244.976 37.7007C245.337 37.7007 245.337 37.7007 245.567 37.7007C245.764 37.7007 245.961 37.635 246.092 37.6022L246.355 39.9338C246.027 40.0324 245.666 40.0981 245.272 40.1637C244.878 40.2294 244.517 40.2623 244.123 40.2623V40.3279V40.2951Z" fill="#C76A4D"/>
<path d="M225.185 40.0656V38.128L226.727 37.7996V30.3448L225.021 30.0164V28.0459H229.747L229.878 29.7536C230.272 29.1297 230.764 28.6699 231.355 28.3087C231.946 27.9802 232.635 27.7832 233.39 27.7832C234.571 27.7832 235.523 28.1773 236.18 28.9326C236.869 29.688 237.197 30.9031 237.197 32.5123V37.7339L238.74 38.0624V40H232.537V38.0624L233.915 37.7339V32.5123C233.915 31.6912 233.751 31.133 233.423 30.8046C233.095 30.4761 232.635 30.2791 232.011 30.2791C231.388 30.2791 231.125 30.3776 230.797 30.5747C230.469 30.7717 230.173 31.0344 229.944 31.3957V37.7011L231.257 38.0295V39.9671H225.152V40.0656H225.185Z" fill="#C76A4D"/>
<path d="M219.08 40.2949C217.931 40.2949 216.947 40.0322 216.06 39.5396C215.207 39.0141 214.551 38.3245 214.058 37.4378C213.599 36.5511 213.369 35.533 213.369 34.3836V33.9238C213.369 32.7415 213.599 31.6906 214.026 30.7711C214.485 29.8516 215.109 29.1291 215.896 28.6036C216.717 28.0782 217.669 27.8154 218.785 27.8154C219.901 27.8154 220.787 28.0453 221.542 28.4722C222.296 28.8992 222.854 29.5231 223.215 30.3113C223.609 31.1323 223.806 32.0847 223.806 33.2341V35.0075H216.75V35.0732C216.75 35.5987 216.914 36.0585 217.111 36.4854C217.34 36.8795 217.636 37.2079 218.03 37.4378C218.424 37.6676 218.916 37.7662 219.474 37.7662C220.032 37.7662 220.623 37.7005 221.115 37.5363C221.64 37.3721 222.132 37.1422 222.625 36.8466L223.511 38.8499C223.019 39.244 222.395 39.5724 221.64 39.8351C220.885 40.0979 220.032 40.2292 219.08 40.2292V40.2949ZM216.75 32.8729H220.754V32.5773C220.754 32.0847 220.688 31.6578 220.557 31.3294C220.426 30.9681 220.229 30.7054 219.933 30.5084C219.638 30.3113 219.277 30.2128 218.85 30.2128C218.424 30.2128 218.063 30.3113 217.767 30.5412C217.472 30.7711 217.242 31.0667 217.078 31.4608C216.914 31.8548 216.815 32.2818 216.75 32.8072V32.8729Z" fill="#C76A4D"/>
<path d="M192.068 40.0656V38.128L193.644 37.7996V30.3448L191.904 30.0164V28.0459H196.631L196.762 29.6223C197.156 29.0312 197.615 28.6042 198.206 28.2758C198.797 27.9474 199.453 27.7832 200.241 27.7832C201.029 27.7832 201.685 27.9474 202.21 28.3087C202.768 28.6371 203.195 29.1625 203.457 29.8522C203.818 29.1954 204.311 28.7027 204.901 28.3415C205.492 27.9802 206.181 27.7832 207.002 27.7832C208.184 27.7832 209.103 28.1773 209.792 28.9983C210.481 29.8193 210.809 31.0344 210.809 32.6765V37.7339L212.385 38.0624V40H206.181V38.0624L207.593 37.7339V32.6436C207.593 31.7569 207.429 31.133 207.133 30.8046C206.838 30.4433 206.411 30.2791 205.853 30.2791C205.295 30.2791 204.934 30.4105 204.573 30.706C204.212 31.0016 203.982 31.3628 203.818 31.8226V37.7011L205.131 38.0295V39.9671H199.289V38.0295L200.602 37.7011V32.6108C200.602 31.7569 200.438 31.133 200.142 30.7717C199.847 30.4105 199.42 30.2463 198.862 30.2463C198.304 30.2463 198.009 30.3448 197.681 30.509C197.353 30.706 197.09 30.9688 196.86 31.2972V37.6683L198.272 37.9967V39.9343H192.068V40.0656Z" fill="#C76A4D"/>
<path d="M188.458 40.2951C187.342 40.2951 186.489 39.9995 185.865 39.3756C185.274 38.7516 184.979 37.7992 184.979 36.4527V30.3115H183.338V28.0455H184.979V25.0898H188.195V28.0455H190.394V30.3115H188.195V36.4199C188.195 36.8797 188.294 37.2081 188.491 37.4051C188.688 37.6022 188.95 37.7007 189.311 37.7007C189.672 37.7007 189.705 37.7007 189.902 37.7007C190.099 37.7007 190.296 37.635 190.427 37.6022L190.69 39.9338C190.362 40.0324 190.001 40.0981 189.607 40.1637C189.213 40.2294 188.852 40.2623 188.458 40.2623V40.3279V40.2951Z" fill="#C76A4D"/>
<path d="M177.43 40.2953C176.544 40.2953 175.69 40.1967 174.936 40.0325C174.181 39.8683 173.426 39.6056 172.704 39.31V35.9275H174.936L175.362 37.668C175.625 37.7994 175.887 37.8979 176.183 37.9636C176.478 38.0293 176.839 38.0621 177.2 38.0621C177.922 38.0621 178.447 37.9307 178.743 37.7008C179.038 37.471 179.202 37.1754 179.202 36.8141C179.202 36.4529 179.038 36.1902 178.71 35.9275C178.415 35.6647 177.758 35.4348 176.839 35.2378C175.428 34.9422 174.378 34.4825 173.688 33.8585C172.999 33.2345 172.671 32.4463 172.671 31.4611C172.671 30.4759 172.835 30.1803 173.163 29.6549C173.491 29.0966 174.017 28.6697 174.706 28.3412C175.395 28.0128 176.281 27.8486 177.364 27.8486C178.447 27.8486 179.104 27.9472 179.826 28.1114C180.581 28.2756 181.204 28.5054 181.73 28.801V32.0851H179.531L179.202 30.5087C179.005 30.3445 178.776 30.246 178.48 30.1803C178.218 30.1146 177.922 30.0818 177.561 30.0818C177.003 30.0818 176.544 30.1803 176.248 30.4102C175.953 30.6401 175.789 30.9357 175.789 31.2969C175.789 31.6582 175.855 31.691 175.953 31.888C176.051 32.0522 176.281 32.2164 176.609 32.3807C176.938 32.5449 177.397 32.6762 177.988 32.8404C179.465 33.1688 180.548 33.6286 181.237 34.2197C181.926 34.778 182.255 35.5662 182.255 36.5843C182.255 37.6023 181.861 38.6204 181.04 39.2772C180.22 39.9669 179.038 40.2953 177.397 40.2953H177.43Z" fill="#C76A4D"/>
<path d="M166.041 40.2949C164.892 40.2949 163.908 40.0322 163.021 39.5396C162.168 39.0141 161.512 38.3245 161.019 37.4378C160.56 36.5511 160.33 35.533 160.33 34.3836V33.9238C160.33 32.7415 160.56 31.6906 160.986 30.7711C161.446 29.8516 162.07 29.1291 162.857 28.6036C163.678 28.0782 164.63 27.8154 165.746 27.8154C166.861 27.8154 167.748 28.0453 168.503 28.4722C169.257 28.8992 169.815 29.5231 170.176 30.3113C170.57 31.1323 170.767 32.0847 170.767 33.2341V35.0075H163.711V35.0732C163.711 35.5987 163.875 36.0585 164.072 36.4854C164.301 36.8795 164.597 37.2079 164.991 37.4378C165.385 37.6676 165.877 37.7662 166.435 37.7662C166.993 37.7662 167.584 37.7005 168.076 37.5363C168.601 37.3721 169.093 37.1422 169.586 36.8466L170.472 38.8499C169.979 39.244 169.356 39.5724 168.601 39.8351C167.846 40.0979 166.993 40.2292 166.041 40.2292V40.2949ZM163.711 32.8729H167.715V32.5773C167.715 32.0847 167.649 31.6578 167.518 31.3294C167.387 30.9681 167.19 30.7054 166.894 30.5084C166.599 30.3113 166.238 30.2128 165.811 30.2128C165.385 30.2128 165.023 30.3113 164.728 30.5412C164.433 30.7711 164.203 31.0667 164.039 31.4608C163.875 31.8548 163.776 32.2818 163.711 32.8072V32.8729Z" fill="#C76A4D"/>
<path d="M151.141 40.0656L147.497 30.2134L146.185 30.0163V28.0459H152.027V29.9835L150.747 30.2134L152.552 35.6649L152.814 36.5845H152.88L153.175 35.6649L155.178 30.2134L153.701 29.9835V28.0459H159.51V30.0163L158.164 30.2462L154.357 40.0984H151.075H151.141V40.0656Z" fill="#C76A4D"/>
<path d="M132.925 40.0656V38.128L134.467 37.7996V30.3448L132.761 30.0164V28.0459H137.487L137.618 29.7536C138.012 29.1297 138.504 28.6699 139.095 28.3087C139.686 27.9802 140.375 27.7832 141.13 27.7832C142.312 27.7832 143.263 28.1773 143.92 28.9326C144.609 29.688 144.937 30.9031 144.937 32.5123V37.7339L146.48 38.0624V40H140.277V38.0624L141.655 37.7339V32.5123C141.655 31.6912 141.491 31.133 141.163 30.8046C140.835 30.4761 140.375 30.2791 139.752 30.2791C139.128 30.2791 138.865 30.3776 138.537 30.5747C138.209 30.7717 137.914 31.0344 137.684 31.3957V37.7011L138.997 38.0295V39.9671H132.892V40.0656H132.925Z" fill="#C76A4D"/>
<path d="M125.048 40.0658V38.1282L126.755 37.7998V26.2071L125.048 25.8786V23.9082H131.743V25.8786L130.037 26.2071V37.7998L131.743 38.1282V40.0658H125.048Z" fill="#C76A4D"/>
<path d="M294.306 17.7672C293.42 17.7672 292.566 17.6687 291.812 17.5045C291.057 17.3403 290.302 17.0775 289.58 16.782V13.3665H291.812L292.238 15.1071C292.501 15.2385 292.763 15.337 293.059 15.4027C293.354 15.4683 293.715 15.5012 294.076 15.5012C294.798 15.5012 295.323 15.3698 295.619 15.1399C295.914 14.9101 296.078 14.6145 296.078 14.2532C296.078 13.892 295.914 13.6293 295.586 13.3665C295.291 13.1038 294.634 12.8739 293.715 12.6769C292.304 12.3813 291.254 11.9215 290.564 11.2976C289.875 10.6736 289.547 9.88543 289.547 8.9002C289.547 7.91498 289.711 7.61941 290.039 7.06112C290.367 6.50283 290.893 6.0759 291.582 5.74749C292.271 5.41909 293.157 5.25488 294.24 5.25488C295.323 5.25488 295.98 5.3534 296.702 5.51761C297.457 5.68181 298.08 5.9117 298.605 6.20726V9.49134H296.406L296.078 7.91498C295.881 7.75078 295.652 7.65226 295.356 7.58657C295.094 7.52089 294.798 7.48805 294.437 7.48805C293.879 7.48805 293.42 7.58657 293.124 7.81646C292.829 8.04634 292.665 8.34191 292.665 8.70316C292.665 9.06441 292.731 9.09725 292.829 9.29429C292.927 9.4585 293.157 9.6227 293.485 9.7869C293.814 9.95111 294.273 10.0825 294.864 10.2467C296.341 10.5751 297.424 11.0349 298.113 11.626C298.802 12.1843 299.131 12.9725 299.131 13.9905C299.131 15.0086 298.737 16.0266 297.916 16.7163C297.096 17.406 295.914 17.7344 294.273 17.7344L294.306 17.7672Z" fill="#C76A4D"/>
<path d="M280.324 17.7671C279.373 17.7671 278.552 17.5372 277.863 17.0446C277.174 16.5519 276.648 15.8623 276.287 14.9756C275.926 14.0889 275.729 13.038 275.729 11.8557V11.6258C275.729 10.345 275.926 9.2613 276.287 8.30892C276.648 7.35654 277.174 6.63405 277.863 6.1086C278.552 5.58314 279.373 5.32042 280.292 5.32042C281.211 5.32042 281.539 5.45178 282.031 5.71451C282.523 5.97723 282.95 6.33848 283.311 6.83109V2.49612L281.572 2.16771V0.197266H286.56V15.2712L288.103 15.5996V17.5372H283.738L283.508 16.0593C283.114 16.6176 282.688 17.0446 282.162 17.3401C281.637 17.6357 281.014 17.7671 280.324 17.7671ZM281.276 15.2383C281.736 15.2383 282.13 15.1398 282.458 14.9428C282.786 14.7457 283.081 14.483 283.311 14.1217V9.03142C283.081 8.63733 282.819 8.34176 282.458 8.14472C282.13 7.91483 281.736 7.81631 281.276 7.81631C280.817 7.81631 280.292 7.98052 279.931 8.30892C279.602 8.63733 279.34 9.06426 279.176 9.65539C279.012 10.2137 278.946 10.9033 278.946 11.6587V11.8886C278.946 12.9395 279.11 13.7605 279.471 14.3845C279.832 14.9756 280.423 15.2712 281.243 15.2712L281.276 15.2383Z" fill="#C76A4D"/>
<path d="M261.189 17.5373V15.5997L262.732 15.2713V7.81646L261.025 7.48805V5.51761H265.784L265.916 7.22533C266.31 6.60135 266.802 6.14158 267.393 5.78033C267.983 5.45193 268.673 5.25488 269.428 5.25488C270.609 5.25488 271.561 5.64897 272.217 6.40431C272.907 7.15964 273.235 8.37475 273.235 9.98395V15.2056L274.777 15.534V17.4716H268.574V15.534L269.953 15.2056V9.98395C269.953 9.16293 269.789 8.60464 269.46 8.27623C269.132 7.94782 268.673 7.75078 268.049 7.75078C267.426 7.75078 267.163 7.8493 266.835 8.04634C266.507 8.24339 266.211 8.50611 265.981 8.86736V15.1728L267.294 15.5012V17.4388H261.189V17.5373Z" fill="#C76A4D"/>
<path d="M252.492 17.7666C251.31 17.7666 250.358 17.4382 249.636 16.8142C248.947 16.1574 248.586 15.3035 248.586 14.1869C248.586 13.0704 249.045 12.118 249.964 11.4283C250.883 10.7058 252.229 10.3774 254.001 10.3774H255.577V9.49072C255.577 8.89959 255.413 8.43982 255.052 8.07857C254.723 7.71732 254.231 7.52028 253.542 7.52028C252.853 7.52028 252.885 7.55312 252.623 7.65164C252.36 7.71732 252.098 7.84869 251.868 8.01289L251.605 9.58924H249.275V6.46938C249.866 6.10813 250.555 5.81256 251.277 5.61552C251.999 5.38563 252.82 5.28711 253.739 5.28711C255.314 5.28711 256.561 5.64836 257.448 6.40369C258.367 7.12619 258.826 8.17709 258.826 9.52356V14.9751C258.826 15.1393 258.826 15.2707 258.826 15.4349L260.073 15.5991V17.5367H256.036C255.971 17.3397 255.872 17.1098 255.807 16.8799C255.741 16.65 255.675 16.4201 255.642 16.1574C255.249 16.65 254.789 17.0441 254.264 17.3397C253.739 17.6352 253.148 17.7666 252.426 17.7666H252.492ZM253.378 15.3692C253.837 15.3692 254.264 15.2707 254.658 15.0736C255.052 14.8766 255.38 14.581 255.61 14.2526V12.3479H254.001C253.279 12.3479 252.754 12.5121 252.393 12.8405C252.032 13.1689 251.835 13.563 251.835 14.0227C251.835 14.4825 251.967 14.7781 252.229 15.008C252.492 15.2378 252.885 15.3364 253.378 15.3364V15.3692Z" fill="#C76A4D"/>
<path d="M241.037 17.5372V15.5996L242.613 15.2712V2.49612L240.873 2.16771V0.197266H245.862V15.2712L247.437 15.5996V17.5372H241.037Z" fill="#C76A4D"/>
<path d="M230.272 22.3977C229.977 22.3977 229.682 22.3977 229.386 22.332C229.091 22.332 228.763 22.2335 228.5 22.135L228.861 19.7705C228.992 19.7705 229.157 19.8361 229.321 19.8361H229.78C230.24 19.8361 230.666 19.7048 230.995 19.4749C231.323 19.245 231.585 18.8838 231.749 18.424L232.012 17.6686L227.975 7.68507L226.498 7.48802V5.51758H232.865V7.48802L231.388 7.71791L233.292 13.0053L233.522 13.6621H233.587L235.819 7.68507L234.375 7.48802V5.51758H240.316V7.48802L238.97 7.68507L234.375 19.3435C234.145 19.9018 233.883 20.3944 233.522 20.8542C233.194 21.314 232.734 21.7081 232.209 21.9708C231.684 22.2663 231.027 22.3977 230.272 22.3977Z" fill="#C76A4D"/>
<path d="M217.144 17.5367V15.5991L218.686 15.2707V7.81584L216.979 7.48744V5.51699H221.739L221.87 6.99483V7.25755C222.198 6.60074 222.559 6.10813 222.986 5.77972C223.412 5.45131 223.938 5.28711 224.561 5.28711C225.185 5.28711 224.955 5.28711 225.185 5.35279C225.415 5.35279 225.611 5.41847 225.808 5.48415L225.48 8.47266L223.872 8.37414C223.412 8.37414 223.051 8.43982 222.756 8.60402C222.461 8.76823 222.231 9.03095 222.001 9.35936V15.2378L223.544 15.5663V17.5039H217.144V17.5367Z" fill="#C76A4D"/>
<path d="M200.963 17.5368V15.5992L202.702 15.2379V3.67801L200.963 3.28392V1.31348H208.052C209.496 1.31348 210.776 1.64188 211.859 2.33154C212.975 3.02119 213.828 3.94073 214.452 5.15584C215.076 6.33811 215.371 7.71742 215.371 9.26093V9.5565C215.371 11.1 215.076 12.4465 214.452 13.6616C213.828 14.8439 213.008 15.7962 211.892 16.4859C210.809 17.1755 209.529 17.504 208.085 17.504H200.93L200.963 17.5368ZM205.951 15.0409H207.953C208.84 15.0409 209.594 14.811 210.218 14.3512C210.842 13.8915 211.301 13.2347 211.629 12.4136C211.958 11.5926 212.122 10.6402 212.122 9.58934V9.29377C212.122 8.24287 211.958 7.29049 211.629 6.46947C211.301 5.64845 210.842 4.99164 210.218 4.53187C209.594 4.0721 208.84 3.84221 207.953 3.84221H205.951V15.0409Z" fill="#C76A4D"/>
<path d="M185.504 17.7666C184.323 17.7666 183.371 17.4382 182.649 16.8142C181.96 16.1574 181.599 15.3035 181.599 14.1869C181.599 13.0704 182.058 12.118 182.977 11.4283C183.896 10.7058 185.242 10.3774 187.014 10.3774H188.59V9.49072C188.59 8.89959 188.425 8.43982 188.064 8.07857C187.736 7.71732 187.244 7.52028 186.555 7.52028C185.865 7.52028 185.898 7.55312 185.636 7.65164C185.373 7.71732 185.11 7.84869 184.881 8.01289L184.618 9.58924H182.288V6.46938C182.879 6.10813 183.568 5.81256 184.29 5.61552C185.012 5.38563 185.833 5.28711 186.752 5.28711C188.327 5.28711 189.574 5.64836 190.46 6.40369C191.379 7.12619 191.839 8.17709 191.839 9.52356V14.9751C191.839 15.1393 191.839 15.2707 191.839 15.4349L193.086 15.5991V17.5367H189.049C188.983 17.3397 188.885 17.1098 188.819 16.8799C188.754 16.65 188.688 16.4201 188.655 16.1574C188.261 16.65 187.802 17.0441 187.277 17.3397C186.752 17.6352 186.161 17.7666 185.439 17.7666H185.504ZM186.391 15.3692C186.85 15.3692 187.277 15.2707 187.671 15.0736C188.064 14.8766 188.393 14.581 188.622 14.2526V12.3479H187.014C186.292 12.3479 185.767 12.5121 185.406 12.8405C185.045 13.1689 184.848 13.563 184.848 14.0227C184.848 14.4825 184.979 14.7781 185.242 15.008C185.504 15.2378 185.898 15.3364 186.391 15.3364V15.3692Z" fill="#C76A4D"/>
<path d="M170.702 22.3977C170.407 22.3977 170.111 22.3977 169.816 22.332C169.521 22.332 169.225 22.2335 168.93 22.135L169.291 19.7705C169.422 19.7705 169.586 19.8361 169.75 19.8361H170.21C170.669 19.8361 171.096 19.7048 171.424 19.4749C171.752 19.245 172.015 18.8838 172.179 18.424L172.442 17.6686L168.405 7.68507L166.928 7.48802V5.51758H173.295V7.48802L171.818 7.71791L173.722 13.0053L173.951 13.6621H174.017L176.249 7.68507L174.805 7.48802V5.51758H180.745V7.48802L179.4 7.68507L174.805 19.3435C174.575 19.9018 174.312 20.3944 173.951 20.8542C173.623 21.314 173.164 21.7081 172.639 21.9708C172.113 22.2663 171.457 22.3977 170.702 22.3977Z" fill="#C76A4D"/>
<path d="M153.635 17.5373V15.5997L155.177 15.2713V7.81646L153.471 7.48805V5.51761H158.23L158.361 7.22533C158.755 6.60135 159.247 6.14158 159.838 5.78033C160.429 5.45193 161.118 5.25488 161.873 5.25488C163.054 5.25488 164.006 5.64897 164.663 6.40431C165.319 7.15964 165.68 8.37475 165.68 9.98395V15.2056L167.223 15.534V17.4716H161.02V15.534L162.398 15.2056V9.98395C162.398 9.16293 162.234 8.60464 161.906 8.27623C161.578 7.94782 161.118 7.75078 160.494 7.75078C159.871 7.75078 159.608 7.8493 159.28 8.04634C158.952 8.24339 158.656 8.50611 158.427 8.86736V15.1728L159.74 15.5012V17.4388H153.635V17.5373Z" fill="#C76A4D"/>
<path d="M147.53 17.7666C146.381 17.7666 145.364 17.5039 144.511 17.0112C143.657 16.4858 143.001 15.7961 142.509 14.9094C142.049 14.0227 141.819 13.0047 141.819 11.8553V11.3955C141.819 10.2132 142.049 9.16231 142.476 8.24277C142.935 7.32323 143.559 6.60074 144.347 6.07529C145.167 5.54983 146.119 5.28711 147.235 5.28711C148.351 5.28711 149.237 5.51699 149.992 5.94392C150.747 6.37085 151.305 6.99483 151.666 7.81584C152.027 8.63686 152.256 9.58924 152.256 10.7387V12.5121H145.2V12.5777C145.2 13.1032 145.364 13.563 145.561 13.9899C145.791 14.384 146.086 14.7124 146.48 14.9423C146.874 15.1722 147.366 15.2707 147.924 15.2707C148.482 15.2707 149.073 15.205 149.565 15.0408C150.09 14.8766 150.583 14.6467 151.075 14.3511L151.961 16.3544C151.469 16.7485 150.845 17.0769 150.09 17.3397C149.335 17.6024 148.482 17.7337 147.497 17.7337H147.53V17.7666ZM145.2 10.3446H149.204V10.049C149.204 9.5564 149.138 9.12947 149.007 8.80107C148.876 8.43982 148.679 8.17709 148.384 7.98005C148.088 7.783 147.727 7.68448 147.268 7.68448C146.808 7.68448 146.48 7.783 146.185 8.01289C145.889 8.24277 145.659 8.53834 145.495 8.93243C145.331 9.32652 145.233 9.75345 145.167 10.2789V10.3446H145.2Z" fill="#C76A4D"/>
<path d="M129.347 13.5631L127.674 11.6255L135.583 3.44812C135.583 3.41528 133.975 3.28392 133.975 3.28392V1.31348H140.638V3.28392L139.128 3.57949L129.315 13.5302H129.347V13.5631ZM125.048 17.5368V15.5992L126.755 15.2708V3.64517L125.048 3.31676V1.34632H131.645V3.31676L130.004 3.64517V15.2708L131.645 15.5992V17.5368H125.048ZM134.369 17.5368V15.5992L135.879 15.4678L131.776 9.78638L133.91 7.65174L139.653 15.3365L141.229 15.5992V17.5368H134.336H134.369Z" fill="#C76A4D"/>
<path d="M34.1999 34.614L38.3353 35.4021V40.0655H22.253V35.4021L26.3884 34.614L16.8047 23.9736H24.6161L34.1999 34.614ZM38.3353 6.0097L34.1999 6.79788L24.6161 17.9637H16.8047L26.3884 6.79788L22.253 6.0097V1.31348H38.3353V6.0097Z" fill="#C76A4D"/>
</g>
<defs>
<clipPath id="clip0_3515_11733">
<rect width="299" height="40" fill="white"/>
</clipPath>
</defs>
</svg>
